<svg xmlns="http://www.w3.org/2000/svg" xmlns:xlink="http://www.w3.org/1999/xlink" xmlns:s="https://github.com/nturley/netlistsvg" width="565.5" height="212.5"><style>svg {
  stroke:#000;
  fill:none;
}
text {
  fill:#000;
  stroke:none;
  font-size:10px;
  font-weight: bold;
  font-family: "Courier New", monospace;
}
line {
    stroke-linecap: round;
}
.nodelabel {
  text-anchor: middle;
}
.inputPortLabel {
  text-anchor: end;
}
.splitjoinBody {
  fill:#000;
}</style><g s:type="add" transform="translate(147.66666666666666,101)" s:width="25" s:height="25" id="cell_$add$arithmetic.sv:11$10"><s:alias val="$add"/><circle r="12.5" cx="12.5" cy="12.5" class="cell_$add$arithmetic.sv:11$10"/><line x1="7.5" x2="17.5" y1="12.5" y2="12.5" class="cell_$add$arithmetic.sv:11$10"/><line x1="12.5" x2="12.5" y1="7.5" y2="17.5" class="cell_$add$arithmetic.sv:11$10"/><g s:x="2" s:y="5" s:pid="A"/><g s:x="2" s:y="20" s:pid="B"/><g s:x="26" s:y="12.5" s:pid="Y"/></g><g s:type="not" transform="translate(248,180.5)" s:width="30" s:height="20" id="cell_$procmux$100_CMP0"><s:alias val="$_NOT_"/><s:alias val="$not"/><s:alias val="$logic_not"/><path d="M0,0 L0,20 L20,10 Z" class="cell_$procmux$100_CMP0"/><circle cx="24" cy="10" r="3" class="cell_$procmux$100_CMP0"/><g s:x="-1" s:y="10" s:pid="A"/><g s:x="27" s:y="10" s:pid="Y"/></g><g s:type="mux-bus" transform="translate(419,73.5)" s:width="24" s:height="40" id="cell_$procmux$98"><s:alias val="$pmux-bus"/><s:alias val="$mux-bus"/><s:alias val="$_MUX_-bus"/><path d="M0,0 L20,10 L20,30 L0,40 Z" class="cell_$procmux$98"/><path d="M4,2 L4,0 L22,9 L22,31 L4,40 L4,38" class="cell_$procmux$98"/><path d="M8,2 L8,0 L24,8 L24,32 L8,40 L8,38" class="cell_$procmux$98"/><text x="5" y="32" class="nodelabel cell_$procmux$98" s:attribute="">1</text><text x="5" y="13" class="nodelabel cell_$procmux$98" s:attribute="">0</text><g s:x="-1" s:y="10" s:pid="A"/><g s:x="-1" s:y="30" s:pid="B"/><g s:x="12" s:y="38" s:pid="S"/><g s:x="24.5" s:y="20" s:pid="Y"/></g><g s:type="sub" transform="translate(147.66666666666666,16)" s:width="25" s:height="25" id="cell_$sub$arithmetic.sv:12$11"><s:alias val="$sub"/><circle r="12.5" cx="12.5" cy="12.5" class="cell_$sub$arithmetic.sv:12$11"/><line x1="7.5" x2="17.5" y1="12.5" y2="12.5" class="cell_$sub$arithmetic.sv:12$11"/><g s:x="2" s:y="5" s:pid="A"/><g s:x="2" s:y="20" s:pid="B"/><g s:x="25" s:y="12.5" s:pid="Y"/></g><g s:type="inputExt" transform="translate(12,46)" s:width="30" s:height="20" id="cell_number1"><text x="15" y="-4" class="nodelabel cell_number1" s:attribute="ref">number1</text><s:alias val="$_inputExt_"/><path d="M0,0 L0,20 L15,20 L30,10 L15,0 Z" class="cell_number1"/><g s:x="30" s:y="10" s:pid="Y"/></g><g s:type="inputExt" transform="translate(12,111)" s:width="30" s:height="20" id="cell_number2"><text x="15" y="-4" class="nodelabel cell_number2" s:attribute="ref">number2</text><s:alias val="$_inputExt_"/><path d="M0,0 L0,20 L15,20 L30,10 L15,0 Z" class="cell_number2"/><g s:x="30" s:y="10" s:pid="Y"/></g><g s:type="inputExt" transform="translate(128,180.5)" s:width="30" s:height="20" id="cell_arithmetic_sel"><text x="15" y="-4" class="nodelabel cell_arithmetic_sel" s:attribute="ref">arithmetic_sel</text><s:alias val="$_inputExt_"/><path d="M0,0 L0,20 L15,20 L30,10 L15,0 Z" class="cell_arithmetic_sel"/><g s:x="30" s:y="10" s:pid="Y"/></g><g s:type="outputExt" transform="translate(517.5,83.5)" s:width="30" s:height="20" id="cell_result"><text x="15" y="-4" class="nodelabel cell_result" s:attribute="ref">result</text><s:alias val="$_outputExt_"/><path d="M30,0 L30,20 L15,20 L0,10 L15,0 Z" class="cell_result"/><g s:x="0" s:y="10" s:pid="A"/></g><g s:type="join" transform="translate(338,83)" s:width="4" s:height="40" id="cell_$join$,60,61,62,63,64,65,66,67,68,69,70,71,72,73,45,46,47,48,49,50,51,52,53,54,55,56,57,58,"><rect width="5" height="40" class="splitjoinBody" s:generic="body"/><s:alias val="$_join_"/><g s:x="5" s:y="20" s:pid="out"/><g transform="translate(0,10)" s:x="0" s:y="10" s:pid="in0"><text x="-3" y="-4" class="inputPortLabel">0:13</text></g><g transform="translate(0,30)" s:x="0" s:y="10" s:pid="in0"><text x="-3" y="-4" class="inputPortLabel">14:27</text></g></g><g s:type="join" transform="translate(330.3333333333333,160)" s:width="4" s:height="40" id="cell_$join$,30,59,"><rect width="5" height="40" class="splitjoinBody" s:generic="body"/><s:alias val="$_join_"/><g s:x="5" s:y="20" s:pid="out"/><g transform="translate(0,10)" s:x="0" s:y="10" s:pid="in0"><text x="-3" y="-4" class="inputPortLabel">0</text></g><g transform="translate(0,30)" s:x="0" s:y="10" s:pid="in0"><text x="-3" y="-4" class="inputPortLabel">1</text></g></g><line x1="42" x2="103" y1="56" y2="56" class="net_2,3,4,5,6,7,8,9,10,11,12,13,14,15 width_14" style="stroke-width: 2"/><line x1="103" x2="103" y1="56" y2="106" class="net_2,3,4,5,6,7,8,9,10,11,12,13,14,15 width_14" style="stroke-width: 2"/><line x1="103" x2="149.66666666666666" y1="106" y2="106" class="net_2,3,4,5,6,7,8,9,10,11,12,13,14,15 width_14" style="stroke-width: 2"/><line x1="42" x2="64" y1="56" y2="56" class="net_2,3,4,5,6,7,8,9,10,11,12,13,14,15 width_14" style="stroke-width: 2"/><line x1="64" x2="64" y1="56" y2="16" class="net_2,3,4,5,6,7,8,9,10,11,12,13,14,15 width_14" style="stroke-width: 2"/><line x1="64" x2="103" y1="16" y2="16" class="net_2,3,4,5,6,7,8,9,10,11,12,13,14,15 width_14" style="stroke-width: 2"/><line x1="103" x2="103" y1="16" y2="21" class="net_2,3,4,5,6,7,8,9,10,11,12,13,14,15 width_14" style="stroke-width: 2"/><circle cx="64" cy="56" r="3" style="fill:#000" class="net_2,3,4,5,6,7,8,9,10,11,12,13,14,15 width_14"/><line x1="103" x2="149.66666666666666" y1="21" y2="21" class="net_2,3,4,5,6,7,8,9,10,11,12,13,14,15 width_14" style="stroke-width: 2"/><line x1="42" x2="149.66666666666666" y1="121" y2="121" class="net_16,17,18,19,20,21,22,23,24,25,26,27,28,29 width_14" style="stroke-width: 2"/><line x1="42" x2="74" y1="121" y2="121" class="net_16,17,18,19,20,21,22,23,24,25,26,27,28,29 width_14" style="stroke-width: 2"/><line x1="74" x2="74" y1="121" y2="36" class="net_16,17,18,19,20,21,22,23,24,25,26,27,28,29 width_14" style="stroke-width: 2"/><circle cx="74" cy="121" r="3" style="fill:#000" class="net_16,17,18,19,20,21,22,23,24,25,26,27,28,29 width_14"/><line x1="74" x2="149.66666666666666" y1="36" y2="36" class="net_16,17,18,19,20,21,22,23,24,25,26,27,28,29 width_14" style="stroke-width: 2"/><line x1="158" x2="247" y1="190.5" y2="190.5" class="net_30 width_1" style="stroke-width: 1"/><line x1="158" x2="222" y1="190.5" y2="190.5" class="net_30 width_1" style="stroke-width: 1"/><line x1="222" x2="222" y1="190.5" y2="169.5" class="net_30 width_1" style="stroke-width: 1"/><line x1="222" x2="288" y1="169.5" y2="169.5" class="net_30 width_1" style="stroke-width: 1"/><line x1="288" x2="288" y1="169.5" y2="170.5" class="net_30 width_1" style="stroke-width: 1"/><circle cx="222" cy="190.5" r="2" style="fill:#000" class="net_30 width_1"/><line x1="288" x2="330.3333333333333" y1="170.5" y2="170.5" class="net_30 width_1" style="stroke-width: 1"/><line x1="344" x2="418" y1="103.5" y2="103.5" class="net_60,61,62,63,64,65,66,67,68,69,70,71,72,73,45,46,47,48,49,50,51,52,53,54,55,56,57,58 width_28" style="stroke-width: 2"/><line x1="336.3333333333333" x2="431" y1="180.5" y2="180.5" class="net_30,59 width_2" style="stroke-width: 2"/><line x1="431" x2="431" y1="180.5" y2="111.5" class="net_30,59 width_2" style="stroke-width: 2"/><line x1="443.5" x2="517.5" y1="93.5" y2="93.5" class="net_31,32,33,34,35,36,37,38,39,40,41,42,43,44 width_14" style="stroke-width: 2"/><line x1="172.66666666666666" x2="288" y1="28.5" y2="28.5" class="net_60,61,62,63,64,65,66,67,68,69,70,71,72,73 width_14" style="stroke-width: 2"/><line x1="288" x2="288" y1="28.5" y2="93.5" class="net_60,61,62,63,64,65,66,67,68,69,70,71,72,73 width_14" style="stroke-width: 2"/><line x1="288" x2="338" y1="93.5" y2="93.5" class="net_60,61,62,63,64,65,66,67,68,69,70,71,72,73 width_14" style="stroke-width: 2"/><line x1="173.66666666666666" x2="338" y1="113.5" y2="113.5" class="net_45,46,47,48,49,50,51,52,53,54,55,56,57,58 width_14" style="stroke-width: 2"/><line x1="275" x2="330.3333333333333" y1="190.5" y2="190.5" class="net_59 width_1" style="stroke-width: 1"/><rect x="90" y="11" width="22" height="9" class="net_2,3,4,5,6,7,8,9,10,11,12,13,14,15 width_14 busLabel_14" style="fill: white; stroke: none"/><text x="89" y="19" class="net_2,3,4,5,6,7,8,9,10,11,12,13,14,15 width_14 busLabel_14">/14/</text><rect x="90" y="11" width="22" height="9" class="net_2,3,4,5,6,7,8,9,10,11,12,13,14,15 width_14 busLabel_14" style="fill: white; stroke: none"/><text x="89" y="19" class="net_2,3,4,5,6,7,8,9,10,11,12,13,14,15 width_14 busLabel_14">/14/</text><rect x="90" y="31" width="22" height="9" class="net_16,17,18,19,20,21,22,23,24,25,26,27,28,29 width_14 busLabel_14" style="fill: white; stroke: none"/><text x="89" y="39" class="net_16,17,18,19,20,21,22,23,24,25,26,27,28,29 width_14 busLabel_14">/14/</text><rect x="90" y="31" width="22" height="9" class="net_16,17,18,19,20,21,22,23,24,25,26,27,28,29 width_14 busLabel_14" style="fill: white; stroke: none"/><text x="89" y="39" class="net_16,17,18,19,20,21,22,23,24,25,26,27,28,29 width_14 busLabel_14">/14/</text><rect x="380" y="98.5" width="22" height="9" class="net_60,61,62,63,64,65,66,67,68,69,70,71,72,73,45,46,47,48,49,50,51,52,53,54,55,56,57,58 width_28 busLabel_28" style="fill: white; stroke: none"/><text x="379" y="106.5" class="net_60,61,62,63,64,65,66,67,68,69,70,71,72,73,45,46,47,48,49,50,51,52,53,54,55,56,57,58 width_28 busLabel_28">/28/</text><rect x="380" y="175.5" width="16" height="9" class="net_30,59 width_2 busLabel_2" style="fill: white; stroke: none"/><text x="379" y="183.5" class="net_30,59 width_2 busLabel_2">/2/</text><rect x="479.5" y="88.5" width="22" height="9" class="net_31,32,33,34,35,36,37,38,39,40,41,42,43,44 width_14 busLabel_14" style="fill: white; stroke: none"/><text x="478.5" y="96.5" class="net_31,32,33,34,35,36,37,38,39,40,41,42,43,44 width_14 busLabel_14">/14/</text><rect x="261.5" y="23.5" width="22" height="9" class="net_60,61,62,63,64,65,66,67,68,69,70,71,72,73 width_14 busLabel_14" style="fill: white; stroke: none"/><text x="260.5" y="31.5" class="net_60,61,62,63,64,65,66,67,68,69,70,71,72,73 width_14 busLabel_14">/14/</text><rect x="261.5" y="108.5" width="22" height="9" class="net_45,46,47,48,49,50,51,52,53,54,55,56,57,58 width_14 busLabel_14" style="fill: white; stroke: none"/><text x="260.5" y="116.5" class="net_45,46,47,48,49,50,51,52,53,54,55,56,57,58 width_14 busLabel_14">/14/</text></svg>