<svg xmlns="http://www.w3.org/2000/svg" xmlns:xlink="http://www.w3.org/1999/xlink" xmlns:s="https://github.com/nturley/netlistsvg" width="1000" height="688.5"><style>svg {
  stroke:#000;
  fill:none;
}
text {
  fill:#000;
  stroke:none;
  font-size:10px;
  font-weight: bold;
  font-family: "Courier New", monospace;
}
line {
    stroke-linecap: round;
}
.nodelabel {
  text-anchor: middle;
}
.inputPortLabel {
  text-anchor: end;
}
.splitjoinBody {
  fill:#000;
}</style><g s:type="add" transform="translate(774,558.5)" s:width="25" s:height="25" id="cell_$add$bcd_mux.sv:24$14"><s:alias val="$add"/><circle r="12.5" cx="12.5" cy="12.5" class="cell_$add$bcd_mux.sv:24$14"/><line x1="7.5" x2="17.5" y1="12.5" y2="12.5" class="cell_$add$bcd_mux.sv:24$14"/><line x1="12.5" x2="12.5" y1="7.5" y2="17.5" class="cell_$add$bcd_mux.sv:24$14"/><g s:x="2" s:y="5" s:pid="A"/><g s:x="2" s:y="20" s:pid="B"/><g s:x="26" s:y="12.5" s:pid="Y"/></g><g s:type="add" transform="translate(158.66666666666666,226)" s:width="25" s:height="25" id="cell_$add$bcd_mux.sv:36$19"><s:alias val="$add"/><circle r="12.5" cx="12.5" cy="12.5" class="cell_$add$bcd_mux.sv:36$19"/><line x1="7.5" x2="17.5" y1="12.5" y2="12.5" class="cell_$add$bcd_mux.sv:36$19"/><line x1="12.5" x2="12.5" y1="7.5" y2="17.5" class="cell_$add$bcd_mux.sv:36$19"/><g s:x="2" s:y="5" s:pid="A"/><g s:x="2" s:y="20" s:pid="B"/><g s:x="26" s:y="12.5" s:pid="Y"/></g><g s:type="dff-bus" transform="translate(901,561)" s:width="34" s:height="44" id="cell_$auto$ff.cc:266:slice$123"><s:alias val="$dff-bus"/><s:alias val="$_DFF_-bus"/><s:alias val="$_DFF_P_-bus"/><s:alias val="adff-bus"/><s:alias val="$adff-bus"/><s:alias val="$_DFF_-bus"/><s:alias val="$_DFF_P_-bus"/><s:alias val="sdff-bus"/><s:alias val="$sdff-bus"/><s:alias val="$_DFF_-bus"/><s:alias val="$_DFF_P_-bus"/><rect width="30" height="40" x="0" y="0" class="cell_$auto$ff.cc:266:slice$123"/><path d="M0,35 L5,30 L0,25" class="cell_$auto$ff.cc:266:slice$123"/><path d="M30,2 L32,2 L32,42 L2,42 L2,40" class="cell_$auto$ff.cc:266:slice$123"/><path d="M32,4 L34,4 L34,44 L4,44 L4,42" class="cell_$auto$ff.cc:266:slice$123"/><g s:x="35" s:y="10" s:pid="Q"/><g s:x="-1" s:y="30" s:pid="CLK"/><g s:x="-1" s:y="30" s:pid="C"/><g s:x="-1" s:y="10" s:pid="D"/><g s:x="17" s:y="44" s:pid="ARST"/><g s:x="17" s:y="44" s:pid="SRST"/></g><g s:type="generic" transform="translate(316,265.5)" s:width="30" s:height="40" id="cell_$auto$ff.cc:266:slice$127"><text x="15" y="-4" class="nodelabel cell_$auto$ff.cc:266:slice$127" s:attribute="ref">$sdffe-bus</text><rect width="30" height="80" s:generic="body" class="cell_$auto$ff.cc:266:slice$127"/><g transform="translate(0,10)" s:x="0" s:y="10" s:pid="in0" id="port_$auto$ff.cc:266:slice$127~CLK"><text x="-3" y="-4" class="inputPortLabel cell_$auto$ff.cc:266:slice$127">CLK</text></g><g transform="translate(0,30)" s:x="0" s:y="10" s:pid="in0" id="port_$auto$ff.cc:266:slice$127~D"><text x="-3" y="-4" class="inputPortLabel cell_$auto$ff.cc:266:slice$127">D</text></g><g transform="translate(0,50)" s:x="0" s:y="10" s:pid="in0" id="port_$auto$ff.cc:266:slice$127~EN"><text x="-3" y="-4" class="inputPortLabel cell_$auto$ff.cc:266:slice$127">EN</text></g><g transform="translate(0,70)" s:x="0" s:y="10" s:pid="in0" id="port_$auto$ff.cc:266:slice$127~SRST"><text x="-3" y="-4" class="inputPortLabel cell_$auto$ff.cc:266:slice$127">SRST</text></g><g transform="translate(30,10)" s:x="30" s:y="10" s:pid="out0" id="port_$auto$ff.cc:266:slice$127~Q"><text x="5" y="-4" style="fill:#000; stroke:none" class="cell_$auto$ff.cc:266:slice$127">Q</text></g></g><g s:type="or" transform="translate(835,622)" s:width="30" s:height="25" id="cell_$auto$opt_dff.cc:254:combine_resets$125"><s:alias val="$or"/><s:alias val="$logic_or"/><s:alias val="$_OR_"/><s:alias val="$reduce_or"/><s:alias val="$reduce_bool"/><path d="M0,0 A30 25 0 0 1 0,25 A30 25 0 0 0 30,12.5 A30 25 0 0 0 0,0" class="cell_$auto$opt_dff.cc:254:combine_resets$125"/><g s:x="2" s:y="5" s:pid="A"/><g s:x="2" s:y="20" s:pid="B"/><g s:x="30" s:y="12.5" s:pid="Y"/></g><g s:type="eq" transform="translate(158.66666666666666,635.5)" s:width="25" s:height="25" id="cell_$eq$bcd_mux.sv:21$13"><s:alias val="$eq"/><s:alias val="$eqx"/><circle r="12.5" cx="12.5" cy="12.5" class="cell_$eq$bcd_mux.sv:21$13"/><line x1="7.5" x2="17.5" y1="10" y2="10" class="cell_$eq$bcd_mux.sv:21$13"/><line x1="7.5" x2="17.5" y1="15" y2="15" class="cell_$eq$bcd_mux.sv:21$13"/><g s:x="2" s:y="5" s:pid="A"/><g s:x="2" s:y="20" s:pid="B"/><g s:x="25" s:y="12.5" s:pid="Y"/></g><g s:type="eq" transform="translate(591.3333333333334,331)" s:width="25" s:height="25" id="cell_$procmux$100_CMP0"><s:alias val="$eq"/><s:alias val="$eqx"/><circle r="12.5" cx="12.5" cy="12.5" class="cell_$procmux$100_CMP0"/><line x1="7.5" x2="17.5" y1="10" y2="10" class="cell_$procmux$100_CMP0"/><line x1="7.5" x2="17.5" y1="15" y2="15" class="cell_$procmux$100_CMP0"/><g s:x="2" s:y="5" s:pid="A"/><g s:x="2" s:y="20" s:pid="B"/><g s:x="25" s:y="12.5" s:pid="Y"/></g><g s:type="eq" transform="translate(591.3333333333334,418.5)" s:width="25" s:height="25" id="cell_$procmux$101_CMP0"><s:alias val="$eq"/><s:alias val="$eqx"/><circle r="12.5" cx="12.5" cy="12.5" class="cell_$procmux$101_CMP0"/><line x1="7.5" x2="17.5" y1="10" y2="10" class="cell_$procmux$101_CMP0"/><line x1="7.5" x2="17.5" y1="15" y2="15" class="cell_$procmux$101_CMP0"/><g s:x="2" s:y="5" s:pid="A"/><g s:x="2" s:y="20" s:pid="B"/><g s:x="25" s:y="12.5" s:pid="Y"/></g><g s:type="not" transform="translate(590,478.5)" s:width="30" s:height="20" id="cell_$procmux$102_CMP0"><s:alias val="$_NOT_"/><s:alias val="$not"/><s:alias val="$logic_not"/><path d="M0,0 L0,20 L20,10 Z" class="cell_$procmux$102_CMP0"/><circle cx="24" cy="10" r="3" class="cell_$procmux$102_CMP0"/><g s:x="-1" s:y="10" s:pid="A"/><g s:x="27" s:y="10" s:pid="Y"/></g><g s:type="mux-bus" transform="translate(775,488.5)" s:width="24" s:height="40" id="cell_$procmux$103"><s:alias val="$pmux-bus"/><s:alias val="$mux-bus"/><s:alias val="$_MUX_-bus"/><path d="M0,0 L20,10 L20,30 L0,40 Z" class="cell_$procmux$103"/><path d="M4,2 L4,0 L22,9 L22,31 L4,40 L4,38" class="cell_$procmux$103"/><path d="M8,2 L8,0 L24,8 L24,32 L8,40 L8,38" class="cell_$procmux$103"/><text x="5" y="32" class="nodelabel cell_$procmux$103" s:attribute="">1</text><text x="5" y="13" class="nodelabel cell_$procmux$103" s:attribute="">0</text><g s:x="-1" s:y="10" s:pid="A"/><g s:x="-1" s:y="30" s:pid="B"/><g s:x="12" s:y="38" s:pid="S"/><g s:x="24.5" s:y="20" s:pid="Y"/></g><g s:type="eq" transform="translate(591.3333333333334,271)" s:width="25" s:height="25" id="cell_$procmux$104_CMP0"><s:alias val="$eq"/><s:alias val="$eqx"/><circle r="12.5" cx="12.5" cy="12.5" class="cell_$procmux$104_CMP0"/><line x1="7.5" x2="17.5" y1="10" y2="10" class="cell_$procmux$104_CMP0"/><line x1="7.5" x2="17.5" y1="15" y2="15" class="cell_$procmux$104_CMP0"/><g s:x="2" s:y="5" s:pid="A"/><g s:x="2" s:y="20" s:pid="B"/><g s:x="25" s:y="12.5" s:pid="Y"/></g><g s:type="mux-bus" transform="translate(775,57)" s:width="24" s:height="40" id="cell_$procmux$98"><s:alias val="$pmux-bus"/><s:alias val="$mux-bus"/><s:alias val="$_MUX_-bus"/><path d="M0,0 L20,10 L20,30 L0,40 Z" class="cell_$procmux$98"/><path d="M4,2 L4,0 L22,9 L22,31 L4,40 L4,38" class="cell_$procmux$98"/><path d="M8,2 L8,0 L24,8 L24,32 L8,40 L8,38" class="cell_$procmux$98"/><text x="5" y="32" class="nodelabel cell_$procmux$98" s:attribute="">1</text><text x="5" y="13" class="nodelabel cell_$procmux$98" s:attribute="">0</text><g s:x="-1" s:y="10" s:pid="A"/><g s:x="-1" s:y="30" s:pid="B"/><g s:x="12" s:y="38" s:pid="S"/><g s:x="24.5" s:y="20" s:pid="Y"/></g><g s:type="mux" transform="translate(224.33333333333334,296)" s:width="20" s:height="40" id="cell_$ternary$bcd_mux.sv:28$16"><s:alias val="$pmux"/><s:alias val="$mux"/><s:alias val="$_MUX_"/><path d="M0,0 L20,10 L20,30 L0,40 Z" class="cell_$ternary$bcd_mux.sv:28$16"/><text x="5" y="32" class="nodelabel cell_$ternary$bcd_mux.sv:28$16" s:attribute="">1</text><text x="5" y="13" class="nodelabel cell_$ternary$bcd_mux.sv:28$16" s:attribute="">0</text><g s:x="0" s:y="10" s:pid="A"/><g s:x="0" s:y="30" s:pid="B"/><g s:x="10" s:y="35" s:pid="S"/><g s:x="20" s:y="20" s:pid="Y"/></g><g s:type="inputExt" transform="translate(221,366)" s:width="30" s:height="20" id="cell_clk"><text x="15" y="-4" class="nodelabel cell_clk" s:attribute="ref">clk</text><s:alias val="$_inputExt_"/><path d="M0,0 L0,20 L15,20 L30,10 L15,0 Z" class="cell_clk"/><g s:x="30" s:y="10" s:pid="Y"/></g><g s:type="inputExt" transform="translate(221,607)" s:width="30" s:height="20" id="cell_reset"><text x="15" y="-4" class="nodelabel cell_reset" s:attribute="ref">reset</text><s:alias val="$_inputExt_"/><path d="M0,0 L0,20 L15,20 L30,10 L15,0 Z" class="cell_reset"/><g s:x="30" s:y="10" s:pid="Y"/></g><g s:type="inputExt" transform="translate(506,217)" s:width="30" s:height="20" id="cell_number_0"><text x="15" y="-4" class="nodelabel cell_number_0" s:attribute="ref">number_0</text><s:alias val="$_inputExt_"/><path d="M0,0 L0,20 L15,20 L30,10 L15,0 Z" class="cell_number_0"/><g s:x="30" s:y="10" s:pid="Y"/></g><g s:type="inputExt" transform="translate(506,152)" s:width="30" s:height="20" id="cell_number_1"><text x="15" y="-4" class="nodelabel cell_number_1" s:attribute="ref">number_1</text><s:alias val="$_inputExt_"/><path d="M0,0 L0,20 L15,20 L30,10 L15,0 Z" class="cell_number_1"/><g s:x="30" s:y="10" s:pid="Y"/></g><g s:type="inputExt" transform="translate(506,87)" s:width="30" s:height="20" id="cell_number_2"><text x="15" y="-4" class="nodelabel cell_number_2" s:attribute="ref">number_2</text><s:alias val="$_inputExt_"/><path d="M0,0 L0,20 L15,20 L30,10 L15,0 Z" class="cell_number_2"/><g s:x="30" s:y="10" s:pid="Y"/></g><g s:type="inputExt" transform="translate(506,22)" s:width="30" s:height="20" id="cell_number_3"><text x="15" y="-4" class="nodelabel cell_number_3" s:attribute="ref">number_3</text><s:alias val="$_inputExt_"/><path d="M0,0 L0,20 L15,20 L30,10 L15,0 Z" class="cell_number_3"/><g s:x="30" s:y="10" s:pid="Y"/></g><g s:type="outputExt" transform="translate(900,67)" s:width="30" s:height="20" id="cell_output_number"><text x="15" y="-4" class="nodelabel cell_output_number" s:attribute="ref">output_number</text><s:alias val="$_outputExt_"/><path d="M30,0 L30,20 L15,20 L0,10 L15,0 Z" class="cell_output_number"/><g s:x="0" s:y="10" s:pid="A"/></g><g s:type="outputExt" transform="translate(901,498.5)" s:width="30" s:height="20" id="cell_digit_select"><text x="15" y="-4" class="nodelabel cell_digit_select" s:attribute="ref">digit_select</text><s:alias val="$_outputExt_"/><path d="M30,0 L30,20 L15,20 L0,10 L15,0 Z" class="cell_digit_select"/><g s:x="0" s:y="10" s:pid="A"/></g><g s:type="constant" transform="translate(89,236)" s:width="30" s:height="20" id="cell_1"><text x="15" y="-4" class="nodelabel cell_1" s:attribute="ref">1</text><s:alias val="$_constant_"/><rect width="30" height="20" class="cell_1"/><g s:x="31" s:y="10" s:pid="Y"/></g><g s:type="constant" transform="translate(12,645.5)" s:width="30" s:height="20" id="cell_1111111111111111111"><text x="15" y="-4" class="nodelabel cell_1111111111111111111" s:attribute="ref">0x7ffff</text><s:alias val="$_constant_"/><rect width="30" height="20" class="cell_1111111111111111111"/><g s:x="31" s:y="10" s:pid="Y"/></g><g s:type="constant" transform="translate(316,393.5)" s:width="30" s:height="20" id="cell_10"><text x="15" y="-4" class="nodelabel cell_10" s:attribute="ref">10</text><s:alias val="$_constant_"/><rect width="30" height="20" class="cell_10"/><g s:x="31" s:y="10" s:pid="Y"/></g><g s:type="constant" transform="translate(655,508.5)" s:width="30" s:height="20" id="cell_1110110110110111"><text x="15" y="-4" class="nodelabel cell_1110110110110111" s:attribute="ref">0xedb7</text><s:alias val="$_constant_"/><rect width="30" height="20" class="cell_1110110110110111"/><g s:x="31" s:y="10" s:pid="Y"/></g><g s:type="constant" transform="translate(316,186)" s:width="30" s:height="20" id="cell_11"><text x="15" y="-4" class="nodelabel cell_11" s:attribute="ref">11</text><s:alias val="$_constant_"/><rect width="30" height="20" class="cell_11"/><g s:x="31" s:y="10" s:pid="Y"/></g><g s:type="constant" transform="translate(155,296)" s:width="30" s:height="20" id="cell_0"><text x="15" y="-4" class="nodelabel cell_0" s:attribute="ref">0</text><s:alias val="$_constant_"/><rect width="30" height="20" class="cell_0"/><g s:x="31" s:y="10" s:pid="Y"/></g><g s:type="join" transform="translate(733,606.5)" s:width="4" s:height="40" id="cell_$join$,3,74,"><rect width="5" height="40" class="splitjoinBody" s:generic="body"/><s:alias val="$_join_"/><g s:x="5" s:y="20" s:pid="out"/><g transform="translate(0,10)" s:x="0" s:y="10" s:pid="in0"><text x="-3" y="-4" class="inputPortLabel">0</text></g><g transform="translate(0,30)" s:x="0" s:y="10" s:pid="in0"><text x="-3" y="-4" class="inputPortLabel">1</text></g></g><g s:type="join" transform="translate(672.5,313)" s:width="4" s:height="40" id="cell_$join$,78,75,76,77,"><rect width="5" height="80" class="splitjoinBody" s:generic="body"/><s:alias val="$_join_"/><g s:x="5" s:y="20" s:pid="out"/><g transform="translate(0,10)" s:x="0" s:y="10" s:pid="in0"><text x="-3" y="-4" class="inputPortLabel">0</text></g><g transform="translate(0,30)" s:x="0" s:y="10" s:pid="in0"><text x="-3" y="-4" class="inputPortLabel">1</text></g><g transform="translate(0,50)" s:x="0" s:y="10" s:pid="in0"><text x="-3" y="-4" class="inputPortLabel">2</text></g><g transform="translate(0,70)" s:x="0" s:y="10" s:pid="in0"><text x="-3" y="-4" class="inputPortLabel">3</text></g></g><g s:type="join" transform="translate(674,66.5)" s:width="4" s:height="40" id="cell_$join$,16,17,18,19,12,13,14,15,8,9,10,11,4,5,6,7,"><rect width="5" height="80" class="splitjoinBody" s:generic="body"/><s:alias val="$_join_"/><g s:x="5" s:y="20" s:pid="out"/><g transform="translate(0,10)" s:x="0" s:y="10" s:pid="in0"><text x="-3" y="-4" class="inputPortLabel">0:3</text></g><g transform="translate(0,30)" s:x="0" s:y="10" s:pid="in0"><text x="-3" y="-4" class="inputPortLabel">4:7</text></g><g transform="translate(0,50)" s:x="0" s:y="10" s:pid="in0"><text x="-3" y="-4" class="inputPortLabel">8:11</text></g><g transform="translate(0,70)" s:x="0" s:y="10" s:pid="in0"><text x="-3" y="-4" class="inputPortLabel">12:15</text></g></g><line x1="936" x2="988" y1="571" y2="571" class="net_28,29,30,31,32,33,34,35,36,37,38,39,40,41,42,43,44,45,46,47 width_20" style="stroke-width: 2"/><line x1="988" x2="988" y1="571" y2="548.5" class="net_28,29,30,31,32,33,34,35,36,37,38,39,40,41,42,43,44,45,46,47 width_20" style="stroke-width: 2"/><line x1="988" x2="749" y1="548.5" y2="548.5" class="net_28,29,30,31,32,33,34,35,36,37,38,39,40,41,42,43,44,45,46,47 width_20" style="stroke-width: 2"/><line x1="749" x2="749" y1="548.5" y2="563.5" class="net_28,29,30,31,32,33,34,35,36,37,38,39,40,41,42,43,44,45,46,47 width_20" style="stroke-width: 2"/><circle cx="988" cy="571" r="3" style="fill:#000" class="net_28,29,30,31,32,33,34,35,36,37,38,39,40,41,42,43,44,45,46,47 width_20"/><line x1="749" x2="776" y1="563.5" y2="563.5" class="net_28,29,30,31,32,33,34,35,36,37,38,39,40,41,42,43,44,45,46,47 width_20" style="stroke-width: 2"/><line x1="936" x2="988" y1="571" y2="571" class="net_28,29,30,31,32,33,34,35,36,37,38,39,40,41,42,43,44,45,46,47 width_20" style="stroke-width: 2"/><line x1="988" x2="988" y1="571" y2="670.5" class="net_28,29,30,31,32,33,34,35,36,37,38,39,40,41,42,43,44,45,46,47 width_20" style="stroke-width: 2"/><line x1="988" x2="130" y1="670.5" y2="670.5" class="net_28,29,30,31,32,33,34,35,36,37,38,39,40,41,42,43,44,45,46,47 width_20" style="stroke-width: 2"/><line x1="130" x2="130" y1="670.5" y2="640.5" class="net_28,29,30,31,32,33,34,35,36,37,38,39,40,41,42,43,44,45,46,47 width_20" style="stroke-width: 2"/><line x1="130" x2="160.66666666666666" y1="640.5" y2="640.5" class="net_28,29,30,31,32,33,34,35,36,37,38,39,40,41,42,43,44,45,46,47 width_20" style="stroke-width: 2"/><line x1="120" x2="130" y1="246" y2="246" class="net_79 width_1" style="stroke-width: 1"/><line x1="130" x2="130" y1="246" y2="439.5" class="net_79 width_1" style="stroke-width: 1"/><line x1="130" x2="206" y1="439.5" y2="439.5" class="net_79 width_1" style="stroke-width: 1"/><line x1="206" x2="206" y1="439.5" y2="637" class="net_79 width_1" style="stroke-width: 1"/><line x1="206" x2="261" y1="637" y2="637" class="net_79 width_1" style="stroke-width: 1"/><line x1="261" x2="261" y1="637" y2="439.5" class="net_79 width_1" style="stroke-width: 1"/><line x1="261" x2="476" y1="439.5" y2="439.5" class="net_79 width_1" style="stroke-width: 1"/><line x1="476" x2="476" y1="439.5" y2="578.5" class="net_79 width_1" style="stroke-width: 1"/><circle cx="130" cy="246" r="2" style="fill:#000" class="net_79 width_1"/><circle cx="261" cy="439.5" r="2" style="fill:#000" class="net_79 width_1"/><circle cx="476" cy="439.5" r="2" style="fill:#000" class="net_79 width_1"/><line x1="476" x2="776" y1="578.5" y2="578.5" class="net_79 width_1" style="stroke-width: 1"/><line x1="120" x2="160.66666666666666" y1="246" y2="246" class="net_79 width_1" style="stroke-width: 1"/><line x1="120" x2="130" y1="246" y2="246" class="net_79 width_1" style="stroke-width: 1"/><line x1="130" x2="130" y1="246" y2="439.5" class="net_79 width_1" style="stroke-width: 1"/><line x1="130" x2="564" y1="439.5" y2="439.5" class="net_79 width_1" style="stroke-width: 1"/><line x1="564" x2="564" y1="439.5" y2="438.5" class="net_79 width_1" style="stroke-width: 1"/><line x1="564" x2="593.3333333333334" y1="438.5" y2="438.5" class="net_79 width_1" style="stroke-width: 1"/><line x1="120" x2="130" y1="246" y2="246" class="net_79 width_1" style="stroke-width: 1"/><line x1="130" x2="130" y1="246" y2="439.5" class="net_79 width_1" style="stroke-width: 1"/><line x1="130" x2="206" y1="439.5" y2="439.5" class="net_79 width_1" style="stroke-width: 1"/><line x1="206" x2="206" y1="439.5" y2="326" class="net_79 width_1" style="stroke-width: 1"/><circle cx="206" cy="439.5" r="2" style="fill:#000" class="net_79 width_1"/><line x1="206" x2="224.33333333333334" y1="326" y2="326" class="net_79 width_1" style="stroke-width: 1"/><line x1="347" x2="486" y1="276" y2="276" class="net_68,69 width_2" style="stroke-width: 2"/><line x1="486" x2="486" y1="276" y2="216" class="net_68,69 width_2" style="stroke-width: 2"/><line x1="486" x2="130" y1="216" y2="216" class="net_68,69 width_2" style="stroke-width: 2"/><line x1="130" x2="130" y1="216" y2="231" class="net_68,69 width_2" style="stroke-width: 2"/><circle cx="486" cy="276" r="3" style="fill:#000" class="net_68,69 width_2"/><line x1="130" x2="160.66666666666666" y1="231" y2="231" class="net_68,69 width_2" style="stroke-width: 2"/><line x1="347" x2="486" y1="276" y2="276" class="net_68,69 width_2" style="stroke-width: 2"/><line x1="486" x2="486" y1="276" y2="336" class="net_68,69 width_2" style="stroke-width: 2"/><circle cx="486" cy="336" r="3" style="fill:#000" class="net_68,69 width_2"/><line x1="486" x2="593.3333333333334" y1="336" y2="336" class="net_68,69 width_2" style="stroke-width: 2"/><line x1="347" x2="486" y1="276" y2="276" class="net_68,69 width_2" style="stroke-width: 2"/><line x1="486" x2="486" y1="276" y2="423.5" class="net_68,69 width_2" style="stroke-width: 2"/><circle cx="486" cy="423.5" r="3" style="fill:#000" class="net_68,69 width_2"/><line x1="486" x2="593.3333333333334" y1="423.5" y2="423.5" class="net_68,69 width_2" style="stroke-width: 2"/><line x1="347" x2="486" y1="276" y2="276" class="net_68,69 width_2" style="stroke-width: 2"/><line x1="486" x2="486" y1="276" y2="488.5" class="net_68,69 width_2" style="stroke-width: 2"/><line x1="486" x2="589" y1="488.5" y2="488.5" class="net_68,69 width_2" style="stroke-width: 2"/><line x1="347" x2="593.3333333333334" y1="276" y2="276" class="net_68,69 width_2" style="stroke-width: 2"/><line x1="251" x2="271" y1="376" y2="376" class="net_2 width_1" style="stroke-width: 1"/><line x1="271" x2="271" y1="376" y2="593.5" class="net_2 width_1" style="stroke-width: 1"/><line x1="271" x2="875" y1="593.5" y2="593.5" class="net_2 width_1" style="stroke-width: 1"/><line x1="875" x2="875" y1="593.5" y2="591" class="net_2 width_1" style="stroke-width: 1"/><circle cx="271" cy="376" r="2" style="fill:#000" class="net_2 width_1"/><line x1="875" x2="900" y1="591" y2="591" class="net_2 width_1" style="stroke-width: 1"/><line x1="251" x2="271" y1="376" y2="376" class="net_2 width_1" style="stroke-width: 1"/><line x1="271" x2="271" y1="376" y2="276" class="net_2 width_1" style="stroke-width: 1"/><line x1="271" x2="316" y1="276" y2="276" class="net_2 width_1" style="stroke-width: 1"/><line x1="800" x2="900" y1="571" y2="571" class="net_48,49,50,51,52,53,54,55,56,57,58,59,60,61,62,63,64,65,66,67 width_20" style="stroke-width: 2"/><line x1="865" x2="918" y1="634.5" y2="634.5" class="net_72 width_1" style="stroke-width: 1"/><line x1="918" x2="918" y1="634.5" y2="605" class="net_72 width_1" style="stroke-width: 1"/><line x1="184.66666666666666" x2="281" y1="238.5" y2="238.5" class="net_70,71 width_2" style="stroke-width: 2"/><line x1="281" x2="281" y1="238.5" y2="296" class="net_70,71 width_2" style="stroke-width: 2"/><line x1="281" x2="316" y1="296" y2="296" class="net_70,71 width_2" style="stroke-width: 2"/><line x1="244.33333333333334" x2="316" y1="316" y2="316" class="net_73 width_1" style="stroke-width: 1"/><line x1="251" x2="281" y1="617" y2="617" class="net_3 width_1" style="stroke-width: 1"/><line x1="281" x2="281" y1="617" y2="336" class="net_3 width_1" style="stroke-width: 1"/><circle cx="281" cy="617" r="2" style="fill:#000" class="net_3 width_1"/><line x1="281" x2="316" y1="336" y2="336" class="net_3 width_1" style="stroke-width: 1"/><line x1="251" x2="733" y1="617" y2="617" class="net_3 width_1" style="stroke-width: 1"/><line x1="739" x2="837" y1="627" y2="627" class="net_3,74 width_2" style="stroke-width: 2"/><line x1="43" x2="160.66666666666666" y1="655.5" y2="655.5" class="net_81,82,83,84,85,86,87,88,89,90,91,92,93,94,95,96,97,98,99 width_19" style="stroke-width: 2"/><line x1="347" x2="564" y1="403.5" y2="403.5" class="net_100,101 width_2" style="stroke-width: 2"/><line x1="564" x2="564" y1="403.5" y2="351" class="net_100,101 width_2" style="stroke-width: 2"/><line x1="564" x2="593.3333333333334" y1="351" y2="351" class="net_100,101 width_2" style="stroke-width: 2"/><line x1="749" x2="749" y1="128" y2="498.5" class="net_x,x,x,x width_4" style="stroke-width: 2"/><line x1="749" x2="774" y1="498.5" y2="498.5" class="net_x,x,x,x width_4" style="stroke-width: 2"/><line x1="749" x2="749" y1="128" y2="67" class="net_x,x,x,x width_4" style="stroke-width: 2"/><line x1="749" x2="774" y1="67" y2="67" class="net_x,x,x,x width_4" style="stroke-width: 2"/><line x1="686" x2="774" y1="518.5" y2="518.5" class="net_103,104,105,106,107,108,109,110,111,112,113,114,115,116,117,118 width_16" style="stroke-width: 2"/><line x1="678.5" x2="701" y1="333.5" y2="333.5" class="net_78,75,76,77 width_4" style="stroke-width: 2"/><line x1="701" x2="701" y1="333.5" y2="538.5" class="net_78,75,76,77 width_4" style="stroke-width: 2"/><line x1="701" x2="787" y1="538.5" y2="538.5" class="net_78,75,76,77 width_4" style="stroke-width: 2"/><circle cx="701" cy="333.5" r="3" style="fill:#000" class="net_78,75,76,77 width_4"/><line x1="787" x2="787" y1="538.5" y2="526.5" class="net_78,75,76,77 width_4" style="stroke-width: 2"/><line x1="678.5" x2="787" y1="333.5" y2="333.5" class="net_78,75,76,77 width_4" style="stroke-width: 2"/><line x1="787" x2="787" y1="333.5" y2="95" class="net_78,75,76,77 width_4" style="stroke-width: 2"/><line x1="347" x2="496" y1="196" y2="196" class="net_119,120 width_2" style="stroke-width: 2"/><line x1="496" x2="496" y1="196" y2="296" class="net_119,120 width_2" style="stroke-width: 2"/><line x1="496" x2="564" y1="296" y2="296" class="net_119,120 width_2" style="stroke-width: 2"/><line x1="564" x2="564" y1="296" y2="291" class="net_119,120 width_2" style="stroke-width: 2"/><line x1="564" x2="593.3333333333334" y1="291" y2="291" class="net_119,120 width_2" style="stroke-width: 2"/><line x1="680" x2="774" y1="87" y2="87" class="net_16,17,18,19,12,13,14,15,8,9,10,11,4,5,6,7 width_16" style="stroke-width: 2"/><line x1="186" x2="224.33333333333334" y1="306" y2="306" class="net_121 width_1" style="stroke-width: 1"/><line x1="183.66666666666666" x2="196" y1="648" y2="648" class="net_74 width_1" style="stroke-width: 1"/><line x1="196" x2="196" y1="648" y2="346" class="net_74 width_1" style="stroke-width: 1"/><line x1="196" x2="234.33333333333334" y1="346" y2="346" class="net_74 width_1" style="stroke-width: 1"/><circle cx="196" cy="648" r="2" style="fill:#000" class="net_74 width_1"/><line x1="234.33333333333334" x2="234.33333333333334" y1="346" y2="331" class="net_74 width_1" style="stroke-width: 1"/><line x1="183.66666666666666" x2="701" y1="648" y2="648" class="net_74 width_1" style="stroke-width: 1"/><line x1="701" x2="701" y1="648" y2="637" class="net_74 width_1" style="stroke-width: 1"/><line x1="701" x2="733" y1="637" y2="637" class="net_74 width_1" style="stroke-width: 1"/><line x1="799.5" x2="900" y1="77" y2="77" class="net_20,21,22,23 width_4" style="stroke-width: 2"/><line x1="799.5" x2="901" y1="508.5" y2="508.5" class="net_24,25,26,27 width_4" style="stroke-width: 2"/><line x1="616.3333333333334" x2="630" y1="283.5" y2="283.5" class="net_78 width_1" style="stroke-width: 1"/><line x1="630" x2="630" y1="283.5" y2="323.5" class="net_78 width_1" style="stroke-width: 1"/><line x1="630" x2="672.5" y1="323.5" y2="323.5" class="net_78 width_1" style="stroke-width: 1"/><line x1="616.3333333333334" x2="672.5" y1="343.5" y2="343.5" class="net_75 width_1" style="stroke-width: 1"/><line x1="616.3333333333334" x2="630" y1="431" y2="431" class="net_76 width_1" style="stroke-width: 1"/><line x1="630" x2="630" y1="431" y2="363.5" class="net_76 width_1" style="stroke-width: 1"/><line x1="630" x2="672.5" y1="363.5" y2="363.5" class="net_76 width_1" style="stroke-width: 1"/><line x1="617" x2="673" y1="488.5" y2="488.5" class="net_77 width_1" style="stroke-width: 1"/><line x1="673" x2="673" y1="488.5" y2="384" class="net_77 width_1" style="stroke-width: 1"/><line x1="536" x2="630" y1="32" y2="32" class="net_16,17,18,19 width_4" style="stroke-width: 2"/><line x1="630" x2="630" y1="32" y2="77" class="net_16,17,18,19 width_4" style="stroke-width: 2"/><line x1="630" x2="674" y1="77" y2="77" class="net_16,17,18,19 width_4" style="stroke-width: 2"/><line x1="536" x2="674" y1="97" y2="97" class="net_12,13,14,15 width_4" style="stroke-width: 2"/><line x1="536" x2="630" y1="162" y2="162" class="net_8,9,10,11 width_4" style="stroke-width: 2"/><line x1="630" x2="630" y1="162" y2="117" class="net_8,9,10,11 width_4" style="stroke-width: 2"/><line x1="630" x2="674" y1="117" y2="117" class="net_8,9,10,11 width_4" style="stroke-width: 2"/><line x1="536" x2="674.5" y1="227" y2="227" class="net_4,5,6,7 width_4" style="stroke-width: 2"/><line x1="674.5" x2="674.5" y1="227" y2="137.5" class="net_4,5,6,7 width_4" style="stroke-width: 2"/><rect x="603.5" y="665.5" width="22" height="9" class="net_28,29,30,31,32,33,34,35,36,37,38,39,40,41,42,43,44,45,46,47 width_20 busLabel_20" style="fill: white; stroke: none"/><text x="602.5" y="673.5" class="net_28,29,30,31,32,33,34,35,36,37,38,39,40,41,42,43,44,45,46,47 width_20 busLabel_20">/20/</text><rect x="603.5" y="665.5" width="22" height="9" class="net_28,29,30,31,32,33,34,35,36,37,38,39,40,41,42,43,44,45,46,47 width_20 busLabel_20" style="fill: white; stroke: none"/><text x="602.5" y="673.5" class="net_28,29,30,31,32,33,34,35,36,37,38,39,40,41,42,43,44,45,46,47 width_20 busLabel_20">/20/</text><rect x="529" y="271" width="16" height="9" class="net_68,69 width_2 busLabel_2" style="fill: white; stroke: none"/><text x="528" y="279" class="net_68,69 width_2 busLabel_2">/2/</text><rect x="529" y="271" width="16" height="9" class="net_68,69 width_2 busLabel_2" style="fill: white; stroke: none"/><text x="528" y="279" class="net_68,69 width_2 busLabel_2">/2/</text><rect x="529" y="271" width="16" height="9" class="net_68,69 width_2 busLabel_2" style="fill: white; stroke: none"/><text x="528" y="279" class="net_68,69 width_2 busLabel_2">/2/</text><rect x="529" y="271" width="16" height="9" class="net_68,69 width_2 busLabel_2" style="fill: white; stroke: none"/><text x="528" y="279" class="net_68,69 width_2 busLabel_2">/2/</text><rect x="529" y="271" width="16" height="9" class="net_68,69 width_2 busLabel_2" style="fill: white; stroke: none"/><text x="528" y="279" class="net_68,69 width_2 busLabel_2">/2/</text><rect x="849" y="566" width="22" height="9" class="net_48,49,50,51,52,53,54,55,56,57,58,59,60,61,62,63,64,65,66,67 width_20 busLabel_20" style="fill: white; stroke: none"/><text x="848" y="574" class="net_48,49,50,51,52,53,54,55,56,57,58,59,60,61,62,63,64,65,66,67 width_20 busLabel_20">/20/</text><rect x="235" y="233.5" width="16" height="9" class="net_70,71 width_2 busLabel_2" style="fill: white; stroke: none"/><text x="234" y="241.5" class="net_70,71 width_2 busLabel_2">/2/</text><rect x="786" y="622" width="16" height="9" class="net_3,74 width_2 busLabel_2" style="fill: white; stroke: none"/><text x="785" y="630" class="net_3,74 width_2 busLabel_2">/2/</text><rect x="103.5" y="650.5" width="22" height="9" class="net_81,82,83,84,85,86,87,88,89,90,91,92,93,94,95,96,97,98,99 width_19 busLabel_19" style="fill: white; stroke: none"/><text x="102.5" y="658.5" class="net_81,82,83,84,85,86,87,88,89,90,91,92,93,94,95,96,97,98,99 width_19 busLabel_19">/19/</text><rect x="529" y="398.5" width="16" height="9" class="net_100,101 width_2 busLabel_2" style="fill: white; stroke: none"/><text x="528" y="406.5" class="net_100,101 width_2 busLabel_2">/2/</text><rect x="731.5" y="513.5" width="22" height="9" class="net_103,104,105,106,107,108,109,110,111,112,113,114,115,116,117,118 width_16 busLabel_16" style="fill: white; stroke: none"/><text x="730.5" y="521.5" class="net_103,104,105,106,107,108,109,110,111,112,113,114,115,116,117,118 width_16 busLabel_16">/16/</text><rect x="731.5" y="328.5" width="16" height="9" class="net_78,75,76,77 width_4 busLabel_4" style="fill: white; stroke: none"/><text x="730.5" y="336.5" class="net_78,75,76,77 width_4 busLabel_4">/4/</text><rect x="731.5" y="328.5" width="16" height="9" class="net_78,75,76,77 width_4 busLabel_4" style="fill: white; stroke: none"/><text x="730.5" y="336.5" class="net_78,75,76,77 width_4 busLabel_4">/4/</text><rect x="529" y="291" width="16" height="9" class="net_119,120 width_2 busLabel_2" style="fill: white; stroke: none"/><text x="528" y="299" class="net_119,120 width_2 busLabel_2">/2/</text><rect x="731.5" y="82" width="22" height="9" class="net_16,17,18,19,12,13,14,15,8,9,10,11,4,5,6,7 width_16 busLabel_16" style="fill: white; stroke: none"/><text x="730.5" y="90" class="net_16,17,18,19,12,13,14,15,8,9,10,11,4,5,6,7 width_16 busLabel_16">/16/</text><rect x="849" y="72" width="16" height="9" class="net_20,21,22,23 width_4 busLabel_4" style="fill: white; stroke: none"/><text x="848" y="80" class="net_20,21,22,23 width_4 busLabel_4">/4/</text><rect x="849" y="503.5" width="16" height="9" class="net_24,25,26,27 width_4 busLabel_4" style="fill: white; stroke: none"/><text x="848" y="511.5" class="net_24,25,26,27 width_4 busLabel_4">/4/</text><rect x="603.5" y="27" width="16" height="9" class="net_16,17,18,19 width_4 busLabel_4" style="fill: white; stroke: none"/><text x="602.5" y="35" class="net_16,17,18,19 width_4 busLabel_4">/4/</text><rect x="603.5" y="92" width="16" height="9" class="net_12,13,14,15 width_4 busLabel_4" style="fill: white; stroke: none"/><text x="602.5" y="100" class="net_12,13,14,15 width_4 busLabel_4">/4/</text><rect x="603.5" y="157" width="16" height="9" class="net_8,9,10,11 width_4 busLabel_4" style="fill: white; stroke: none"/><text x="602.5" y="165" class="net_8,9,10,11 width_4 busLabel_4">/4/</text><rect x="603.5" y="222" width="16" height="9" class="net_4,5,6,7 width_4 busLabel_4" style="fill: white; stroke: none"/><text x="602.5" y="230" class="net_4,5,6,7 width_4 busLabel_4">/4/</text></svg>