<svg xmlns="http://www.w3.org/2000/svg" xmlns:xlink="http://www.w3.org/1999/xlink" xmlns:s="https://github.com/nturley/netlistsvg" width="488" height="295.5"><style>svg {
  stroke:#000;
  fill:none;
}
text {
  fill:#000;
  stroke:none;
  font-size:10px;
  font-weight: bold;
  font-family: "Courier New", monospace;
}
line {
    stroke-linecap: round;
}
.nodelabel {
  text-anchor: middle;
}
.inputPortLabel {
  text-anchor: end;
}
.splitjoinBody {
  fill:#000;
}</style><g s:type="generic" transform="translate(191,62)" s:width="30" s:height="40" id="cell_clr_deb"><text x="15" y="-4" class="nodelabel cell_clr_deb" s:attribute="ref">debounce</text><rect width="30" height="60" s:generic="body" class="cell_clr_deb"/><g transform="translate(0,10)" s:x="0" s:y="10" s:pid="in0" id="port_clr_deb~clk"><text x="-3" y="-4" class="inputPortLabel cell_clr_deb">clk</text></g><g transform="translate(0,30)" s:x="0" s:y="10" s:pid="in0" id="port_clr_deb~rst_ext"><text x="-3" y="-4" class="inputPortLabel cell_clr_deb">rst_ext</text></g><g transform="translate(0,50)" s:x="0" s:y="10" s:pid="in0" id="port_clr_deb~undeb"><text x="-3" y="-4" class="inputPortLabel cell_clr_deb">undeb</text></g><g transform="translate(30,10)" s:x="30" s:y="10" s:pid="out0" id="port_clr_deb~deb"><text x="5" y="-4" style="fill:#000; stroke:none" class="cell_clr_deb">deb</text></g></g><g s:type="generic" transform="translate(313,22)" s:width="30" s:height="40" id="cell_clr_sync"><text x="15" y="-4" class="nodelabel cell_clr_sync" s:attribute="ref">input_sync</text><rect width="30" height="60" s:generic="body" class="cell_clr_sync"/><g transform="translate(0,10)" s:x="0" s:y="10" s:pid="in0" id="port_clr_sync~clk"><text x="-3" y="-4" class="inputPortLabel cell_clr_sync">clk</text></g><g transform="translate(0,30)" s:x="0" s:y="10" s:pid="in0" id="port_clr_sync~rst"><text x="-3" y="-4" class="inputPortLabel cell_clr_sync">rst</text></g><g transform="translate(0,50)" s:x="0" s:y="10" s:pid="in0" id="port_clr_sync~unsync"><text x="-3" y="-4" class="inputPortLabel cell_clr_sync">unsync</text></g><g transform="translate(30,10)" s:x="30" s:y="10" s:pid="out0" id="port_clr_sync~synced"><text x="5" y="-4" style="fill:#000; stroke:none" class="cell_clr_sync">synced</text></g></g><g s:type="generic" transform="translate(191,220.5)" s:width="30" s:height="40" id="cell_ent_deb"><text x="15" y="-4" class="nodelabel cell_ent_deb" s:attribute="ref">debounce</text><rect width="30" height="60" s:generic="body" class="cell_ent_deb"/><g transform="translate(0,10)" s:x="0" s:y="10" s:pid="in0" id="port_ent_deb~clk"><text x="-3" y="-4" class="inputPortLabel cell_ent_deb">clk</text></g><g transform="translate(0,30)" s:x="0" s:y="10" s:pid="in0" id="port_ent_deb~rst_ext"><text x="-3" y="-4" class="inputPortLabel cell_ent_deb">rst_ext</text></g><g transform="translate(0,50)" s:x="0" s:y="10" s:pid="in0" id="port_ent_deb~undeb"><text x="-3" y="-4" class="inputPortLabel cell_ent_deb">undeb</text></g><g transform="translate(30,10)" s:x="30" s:y="10" s:pid="out0" id="port_ent_deb~deb"><text x="5" y="-4" style="fill:#000; stroke:none" class="cell_ent_deb">deb</text></g></g><g s:type="generic" transform="translate(313,169)" s:width="30" s:height="40" id="cell_ent_sync"><text x="15" y="-4" class="nodelabel cell_ent_sync" s:attribute="ref">input_sync</text><rect width="30" height="60" s:generic="body" class="cell_ent_sync"/><g transform="translate(0,10)" s:x="0" s:y="10" s:pid="in0" id="port_ent_sync~clk"><text x="-3" y="-4" class="inputPortLabel cell_ent_sync">clk</text></g><g transform="translate(0,30)" s:x="0" s:y="10" s:pid="in0" id="port_ent_sync~rst"><text x="-3" y="-4" class="inputPortLabel cell_ent_sync">rst</text></g><g transform="translate(0,50)" s:x="0" s:y="10" s:pid="in0" id="port_ent_sync~unsync"><text x="-3" y="-4" class="inputPortLabel cell_ent_sync">unsync</text></g><g transform="translate(30,10)" s:x="30" s:y="10" s:pid="out0" id="port_ent_sync~synced"><text x="5" y="-4" style="fill:#000; stroke:none" class="cell_ent_sync">synced</text></g></g><g s:type="inputExt" transform="translate(12,31)" s:width="30" s:height="20" id="cell_clk"><text x="15" y="-4" class="nodelabel cell_clk" s:attribute="ref">clk</text><s:alias val="$_inputExt_"/><path d="M0,0 L0,20 L15,20 L30,10 L15,0 Z" class="cell_clk"/><g s:x="30" s:y="10" s:pid="Y"/></g><g s:type="inputExt" transform="translate(12,167.5)" s:width="30" s:height="20" id="cell_reset"><text x="15" y="-4" class="nodelabel cell_reset" s:attribute="ref">reset</text><s:alias val="$_inputExt_"/><path d="M0,0 L0,20 L15,20 L30,10 L15,0 Z" class="cell_reset"/><g s:x="30" s:y="10" s:pid="Y"/></g><g s:type="inputExt" transform="translate(12,102.5)" s:width="30" s:height="20" id="cell_button_clr_undeb"><text x="15" y="-4" class="nodelabel cell_button_clr_undeb" s:attribute="ref">button_clr_undeb</text><s:alias val="$_inputExt_"/><path d="M0,0 L0,20 L15,20 L30,10 L15,0 Z" class="cell_button_clr_undeb"/><g s:x="30" s:y="10" s:pid="Y"/></g><g s:type="inputExt" transform="translate(12,232.5)" s:width="30" s:height="20" id="cell_button_ent_undeb"><text x="15" y="-4" class="nodelabel cell_button_ent_undeb" s:attribute="ref">button_ent_undeb</text><s:alias val="$_inputExt_"/><path d="M0,0 L0,20 L15,20 L30,10 L15,0 Z" class="cell_button_ent_undeb"/><g s:x="30" s:y="10" s:pid="Y"/></g><g s:type="outputExt" transform="translate(416,22.5)" s:width="30" s:height="20" id="cell_button_clr"><text x="15" y="-4" class="nodelabel cell_button_clr" s:attribute="ref">button_clr</text><s:alias val="$_outputExt_"/><path d="M30,0 L30,20 L15,20 L0,10 L15,0 Z" class="cell_button_clr"/><g s:x="0" s:y="10" s:pid="A"/></g><g s:type="outputExt" transform="translate(416,169.5)" s:width="30" s:height="20" id="cell_button_ent"><text x="15" y="-4" class="nodelabel cell_button_ent" s:attribute="ref">button_ent</text><s:alias val="$_outputExt_"/><path d="M30,0 L30,20 L15,20 L0,10 L15,0 Z" class="cell_button_ent"/><g s:x="0" s:y="10" s:pid="A"/></g><line x1="42" x2="138" y1="41" y2="41" class="net_2 width_1" style="stroke-width: 1"/><line x1="138" x2="138" y1="41" y2="72.5" class="net_2 width_1" style="stroke-width: 1"/><circle cx="138" cy="41" r="2" style="fill:#000" class="net_2 width_1"/><circle cx="138" cy="72.5" r="2" style="fill:#000" class="net_2 width_1"/><line x1="138" x2="191" y1="72.5" y2="72.5" class="net_2 width_1" style="stroke-width: 1"/><line x1="42" x2="251" y1="41" y2="41" class="net_2 width_1" style="stroke-width: 1"/><line x1="251" x2="251" y1="41" y2="32.5" class="net_2 width_1" style="stroke-width: 1"/><line x1="251" x2="313" y1="32.5" y2="32.5" class="net_2 width_1" style="stroke-width: 1"/><line x1="42" x2="138" y1="41" y2="41" class="net_2 width_1" style="stroke-width: 1"/><line x1="138" x2="138" y1="41" y2="231" class="net_2 width_1" style="stroke-width: 1"/><line x1="138" x2="191" y1="231" y2="231" class="net_2 width_1" style="stroke-width: 1"/><line x1="42" x2="138" y1="41" y2="41" class="net_2 width_1" style="stroke-width: 1"/><line x1="138" x2="138" y1="41" y2="188.5" class="net_2 width_1" style="stroke-width: 1"/><line x1="138" x2="261" y1="188.5" y2="188.5" class="net_2 width_1" style="stroke-width: 1"/><line x1="261" x2="261" y1="188.5" y2="179.5" class="net_2 width_1" style="stroke-width: 1"/><circle cx="138" cy="188.5" r="2" style="fill:#000" class="net_2 width_1"/><line x1="261" x2="313" y1="179.5" y2="179.5" class="net_2 width_1" style="stroke-width: 1"/><line x1="42" x2="128" y1="177.5" y2="177.5" class="net_3 width_1" style="stroke-width: 1"/><line x1="128" x2="128" y1="177.5" y2="92.5" class="net_3 width_1" style="stroke-width: 1"/><circle cx="128" cy="177.5" r="2" style="fill:#000" class="net_3 width_1"/><line x1="128" x2="191" y1="92.5" y2="92.5" class="net_3 width_1" style="stroke-width: 1"/><line x1="42" x2="251" y1="177.5" y2="177.5" class="net_3 width_1" style="stroke-width: 1"/><line x1="251" x2="251" y1="177.5" y2="52.5" class="net_3 width_1" style="stroke-width: 1"/><line x1="251" x2="313" y1="52.5" y2="52.5" class="net_3 width_1" style="stroke-width: 1"/><line x1="42" x2="128" y1="177.5" y2="177.5" class="net_3 width_1" style="stroke-width: 1"/><line x1="128" x2="128" y1="177.5" y2="251" class="net_3 width_1" style="stroke-width: 1"/><line x1="128" x2="191" y1="251" y2="251" class="net_3 width_1" style="stroke-width: 1"/><line x1="42" x2="128" y1="177.5" y2="177.5" class="net_3 width_1" style="stroke-width: 1"/><line x1="128" x2="128" y1="177.5" y2="199.5" class="net_3 width_1" style="stroke-width: 1"/><circle cx="128" cy="199.5" r="2" style="fill:#000" class="net_3 width_1"/><line x1="128" x2="313" y1="199.5" y2="199.5" class="net_3 width_1" style="stroke-width: 1"/><line x1="42" x2="191" y1="112.5" y2="112.5" class="net_4 width_1" style="stroke-width: 1"/><line x1="222" x2="313" y1="72.5" y2="72.5" class="net_8 width_1" style="stroke-width: 1"/><line x1="42" x2="118" y1="242.5" y2="242.5" class="net_5 width_1" style="stroke-width: 1"/><line x1="118" x2="118" y1="242.5" y2="271" class="net_5 width_1" style="stroke-width: 1"/><line x1="118" x2="191" y1="271" y2="271" class="net_5 width_1" style="stroke-width: 1"/><line x1="222" x2="251" y1="231" y2="231" class="net_9 width_1" style="stroke-width: 1"/><line x1="251" x2="251" y1="231" y2="219.5" class="net_9 width_1" style="stroke-width: 1"/><line x1="251" x2="313" y1="219.5" y2="219.5" class="net_9 width_1" style="stroke-width: 1"/><line x1="344" x2="416" y1="32.5" y2="32.5" class="net_6 width_1" style="stroke-width: 1"/><line x1="344" x2="416" y1="179.5" y2="179.5" class="net_7 width_1" style="stroke-width: 1"/></svg>