<svg xmlns="http://www.w3.org/2000/svg" xmlns:xlink="http://www.w3.org/1999/xlink" xmlns:s="https://github.com/nturley/netlistsvg" width="1982.5" height="751.5"><style>svg {
  stroke:#000;
  fill:none;
}
text {
  fill:#000;
  stroke:none;
  font-size:10px;
  font-weight: bold;
  font-family: "Courier New", monospace;
}
line {
    stroke-linecap: round;
}
.nodelabel {
  text-anchor: middle;
}
.inputPortLabel {
  text-anchor: end;
}
.splitjoinBody {
  fill:#000;
}</style><g s:type="add" transform="translate(390,443.5)" s:width="25" s:height="25" id="cell_$add$calculator.sv:40$3"><s:alias val="$add"/><circle r="12.5" cx="12.5" cy="12.5" class="cell_$add$calculator.sv:40$3"/><line x1="7.5" x2="17.5" y1="12.5" y2="12.5" class="cell_$add$calculator.sv:40$3"/><line x1="12.5" x2="12.5" y1="7.5" y2="17.5" class="cell_$add$calculator.sv:40$3"/><g s:x="2" s:y="5" s:pid="A"/><g s:x="2" s:y="20" s:pid="B"/><g s:x="26" s:y="12.5" s:pid="Y"/></g><g s:type="add" transform="translate(1888.5,698.5)" s:width="25" s:height="25" id="cell_$add$calculator.sv:76$6"><s:alias val="$add"/><circle r="12.5" cx="12.5" cy="12.5" class="cell_$add$calculator.sv:76$6"/><line x1="7.5" x2="17.5" y1="12.5" y2="12.5" class="cell_$add$calculator.sv:76$6"/><line x1="12.5" x2="12.5" y1="7.5" y2="17.5" class="cell_$add$calculator.sv:76$6"/><g s:x="2" s:y="5" s:pid="A"/><g s:x="2" s:y="20" s:pid="B"/><g s:x="26" s:y="12.5" s:pid="Y"/></g><g s:type="generic" transform="translate(477,428)" s:width="30" s:height="40" id="cell_$auto$ff.cc:266:slice$406"><text x="15" y="-4" class="nodelabel cell_$auto$ff.cc:266:slice$406" s:attribute="ref">$sdffe</text><rect width="30" height="80" s:generic="body" class="cell_$auto$ff.cc:266:slice$406"/><g transform="translate(0,10)" s:x="0" s:y="10" s:pid="in0" id="port_$auto$ff.cc:266:slice$406~CLK"><text x="-3" y="-4" class="inputPortLabel cell_$auto$ff.cc:266:slice$406">CLK</text></g><g transform="translate(0,30)" s:x="0" s:y="10" s:pid="in0" id="port_$auto$ff.cc:266:slice$406~D"><text x="-3" y="-4" class="inputPortLabel cell_$auto$ff.cc:266:slice$406">D</text></g><g transform="translate(0,50)" s:x="0" s:y="10" s:pid="in0" id="port_$auto$ff.cc:266:slice$406~EN"><text x="-3" y="-4" class="inputPortLabel cell_$auto$ff.cc:266:slice$406">EN</text></g><g transform="translate(0,70)" s:x="0" s:y="10" s:pid="in0" id="port_$auto$ff.cc:266:slice$406~SRST"><text x="-3" y="-4" class="inputPortLabel cell_$auto$ff.cc:266:slice$406">SRST</text></g><g transform="translate(30,10)" s:x="30" s:y="10" s:pid="out0" id="port_$auto$ff.cc:266:slice$406~Q"><text x="5" y="-4" style="fill:#000; stroke:none" class="cell_$auto$ff.cc:266:slice$406">Q</text></g></g><g s:type="generic" transform="translate(972,625.5)" s:width="30" s:height="40" id="cell_$auto$ff.cc:266:slice$408"><text x="15" y="-4" class="nodelabel cell_$auto$ff.cc:266:slice$408" s:attribute="ref">$sdffe-bus</text><rect width="30" height="80" s:generic="body" class="cell_$auto$ff.cc:266:slice$408"/><g transform="translate(0,10)" s:x="0" s:y="10" s:pid="in0" id="port_$auto$ff.cc:266:slice$408~CLK"><text x="-3" y="-4" class="inputPortLabel cell_$auto$ff.cc:266:slice$408">CLK</text></g><g transform="translate(0,30)" s:x="0" s:y="10" s:pid="in0" id="port_$auto$ff.cc:266:slice$408~D"><text x="-3" y="-4" class="inputPortLabel cell_$auto$ff.cc:266:slice$408">D</text></g><g transform="translate(0,50)" s:x="0" s:y="10" s:pid="in0" id="port_$auto$ff.cc:266:slice$408~EN"><text x="-3" y="-4" class="inputPortLabel cell_$auto$ff.cc:266:slice$408">EN</text></g><g transform="translate(0,70)" s:x="0" s:y="10" s:pid="in0" id="port_$auto$ff.cc:266:slice$408~SRST"><text x="-3" y="-4" class="inputPortLabel cell_$auto$ff.cc:266:slice$408">SRST</text></g><g transform="translate(30,10)" s:x="30" s:y="10" s:pid="out0" id="port_$auto$ff.cc:266:slice$408~Q"><text x="5" y="-4" style="fill:#000; stroke:none" class="cell_$auto$ff.cc:266:slice$408">Q</text></g></g><g s:type="or" transform="translate(387,601)" s:width="30" s:height="25" id="cell_$logic_or$calculator.sv:37$2"><s:alias val="$or"/><s:alias val="$logic_or"/><s:alias val="$_OR_"/><s:alias val="$reduce_or"/><s:alias val="$reduce_bool"/><path d="M0,0 A30 25 0 0 1 0,25 A30 25 0 0 0 30,12.5 A30 25 0 0 0 0,0" class="cell_$logic_or$calculator.sv:37$2"/><g s:x="2" s:y="5" s:pid="A"/><g s:x="2" s:y="20" s:pid="B"/><g s:x="30" s:y="12.5" s:pid="Y"/></g><g s:type="mux-bus" transform="translate(1533,426)" s:width="24" s:height="40" id="cell_$procmux$300"><s:alias val="$pmux-bus"/><s:alias val="$mux-bus"/><s:alias val="$_MUX_-bus"/><path d="M0,0 L20,10 L20,30 L0,40 Z" class="cell_$procmux$300"/><path d="M4,2 L4,0 L22,9 L22,31 L4,40 L4,38" class="cell_$procmux$300"/><path d="M8,2 L8,0 L24,8 L24,32 L8,40 L8,38" class="cell_$procmux$300"/><text x="5" y="32" class="nodelabel cell_$procmux$300" s:attribute="">1</text><text x="5" y="13" class="nodelabel cell_$procmux$300" s:attribute="">0</text><g s:x="-1" s:y="10" s:pid="A"/><g s:x="-1" s:y="30" s:pid="B"/><g s:x="12" s:y="38" s:pid="S"/><g s:x="24.5" s:y="20" s:pid="Y"/></g><g s:type="eq" transform="translate(1363.3333333333333,506)" s:width="25" s:height="25" id="cell_$procmux$301_CMP0"><s:alias val="$eq"/><s:alias val="$eqx"/><circle r="12.5" cx="12.5" cy="12.5" class="cell_$procmux$301_CMP0"/><line x1="7.5" x2="17.5" y1="10" y2="10" class="cell_$procmux$301_CMP0"/><line x1="7.5" x2="17.5" y1="15" y2="15" class="cell_$procmux$301_CMP0"/><g s:x="2" s:y="5" s:pid="A"/><g s:x="2" s:y="20" s:pid="B"/><g s:x="25" s:y="12.5" s:pid="Y"/></g><g s:type="eq" transform="translate(1363.3333333333333,566)" s:width="25" s:height="25" id="cell_$procmux$302_CMP0"><s:alias val="$eq"/><s:alias val="$eqx"/><circle r="12.5" cx="12.5" cy="12.5" class="cell_$procmux$302_CMP0"/><line x1="7.5" x2="17.5" y1="10" y2="10" class="cell_$procmux$302_CMP0"/><line x1="7.5" x2="17.5" y1="15" y2="15" class="cell_$procmux$302_CMP0"/><g s:x="2" s:y="5" s:pid="A"/><g s:x="2" s:y="20" s:pid="B"/><g s:x="25" s:y="12.5" s:pid="Y"/></g><g s:type="not" transform="translate(1362,626)" s:width="30" s:height="20" id="cell_$procmux$303_CMP0"><s:alias val="$_NOT_"/><s:alias val="$not"/><s:alias val="$logic_not"/><path d="M0,0 L0,20 L20,10 Z" class="cell_$procmux$303_CMP0"/><circle cx="24" cy="10" r="3" class="cell_$procmux$303_CMP0"/><g s:x="-1" s:y="10" s:pid="A"/><g s:x="27" s:y="10" s:pid="Y"/></g><g s:type="generic" transform="translate(1242,216.5)" s:width="30" s:height="40" id="cell_arithmetic_mod"><text x="15" y="-4" class="nodelabel cell_arithmetic_mod" s:attribute="ref">arithmetic</text><rect width="30" height="60" s:generic="body" class="cell_arithmetic_mod"/><g transform="translate(0,10)" s:x="0" s:y="10" s:pid="in0" id="port_arithmetic_mod~arithmetic_sel"><text x="-3" y="-4" class="inputPortLabel cell_arithmetic_mod">arithmetic_sel</text></g><g transform="translate(0,30)" s:x="0" s:y="10" s:pid="in0" id="port_arithmetic_mod~number1"><text x="-3" y="-4" class="inputPortLabel cell_arithmetic_mod">number1</text></g><g transform="translate(0,50)" s:x="0" s:y="10" s:pid="in0" id="port_arithmetic_mod~number2"><text x="-3" y="-4" class="inputPortLabel cell_arithmetic_mod">number2</text></g><g transform="translate(30,10)" s:x="30" s:y="10" s:pid="out0" id="port_arithmetic_mod~result"><text x="5" y="-4" style="fill:#000; stroke:none" class="cell_arithmetic_mod">result</text></g></g><g s:type="generic" transform="translate(1710.5,395.5)" s:width="30" s:height="40" id="cell_display"><text x="15" y="-4" class="nodelabel cell_display" s:attribute="ref">display</text><rect width="30" height="60" s:generic="body" class="cell_display"/><g transform="translate(0,10)" s:x="0" s:y="10" s:pid="in0" id="port_display~clk"><text x="-3" y="-4" class="inputPortLabel cell_display">clk</text></g><g transform="translate(0,30)" s:x="0" s:y="10" s:pid="in0" id="port_display~reset"><text x="-3" y="-4" class="inputPortLabel cell_display">reset</text></g><g transform="translate(0,50)" s:x="0" s:y="10" s:pid="in0" id="port_display~to_display_nr"><text x="-3" y="-4" class="inputPortLabel cell_display">to_display_nr</text></g><g transform="translate(30,10)" s:x="30" s:y="10" s:pid="out0" id="port_display~digit_select"><text x="5" y="-4" style="fill:#000; stroke:none" class="cell_display">digit_select</text></g><g transform="translate(30,30)" s:x="30" s:y="10" s:pid="out0" id="port_display~led_select"><text x="5" y="-4" style="fill:#000; stroke:none" class="cell_display">led_select</text></g></g><g s:type="generic" transform="translate(245,448)" s:width="30" s:height="40" id="cell_input_mod"><text x="15" y="-4" class="nodelabel cell_input_mod" s:attribute="ref">calculator_input</text><rect width="30" height="80" s:generic="body" class="cell_input_mod"/><g transform="translate(0,10)" s:x="0" s:y="10" s:pid="in0" id="port_input_mod~button_clr_undeb"><text x="-3" y="-4" class="inputPortLabel cell_input_mod">button_clr_undeb</text></g><g transform="translate(0,30)" s:x="0" s:y="10" s:pid="in0" id="port_input_mod~button_ent_undeb"><text x="-3" y="-4" class="inputPortLabel cell_input_mod">button_ent_undeb</text></g><g transform="translate(0,50)" s:x="0" s:y="10" s:pid="in0" id="port_input_mod~clk"><text x="-3" y="-4" class="inputPortLabel cell_input_mod">clk</text></g><g transform="translate(0,70)" s:x="0" s:y="10" s:pid="in0" id="port_input_mod~reset"><text x="-3" y="-4" class="inputPortLabel cell_input_mod">reset</text></g><g transform="translate(30,10)" s:x="30" s:y="10" s:pid="out0" id="port_input_mod~button_clr"><text x="5" y="-4" style="fill:#000; stroke:none" class="cell_input_mod">button_clr</text></g><g transform="translate(30,30)" s:x="30" s:y="10" s:pid="out0" id="port_input_mod~button_ent"><text x="5" y="-4" style="fill:#000; stroke:none" class="cell_input_mod">button_ent</text></g></g><g s:type="generic" transform="translate(832,288)" s:width="30" s:height="40" id="cell_slider_mod"><text x="15" y="-4" class="nodelabel cell_slider_mod" s:attribute="ref">slider_increment</text><rect width="30" height="160" s:generic="body" class="cell_slider_mod"/><g transform="translate(0,10)" s:x="0" s:y="10" s:pid="in0" id="port_slider_mod~btn_clr"><text x="-3" y="-4" class="inputPortLabel cell_slider_mod">btn_clr</text></g><g transform="translate(0,30)" s:x="0" s:y="10" s:pid="in0" id="port_slider_mod~clk"><text x="-3" y="-4" class="inputPortLabel cell_slider_mod">clk</text></g><g transform="translate(0,50)" s:x="0" s:y="10" s:pid="in0" id="port_slider_mod~rst_ext"><text x="-3" y="-4" class="inputPortLabel cell_slider_mod">rst_ext</text></g><g transform="translate(0,70)" s:x="0" s:y="10" s:pid="in0" id="port_slider_mod~slider_1"><text x="-3" y="-4" class="inputPortLabel cell_slider_mod">slider_1</text></g><g transform="translate(0,90)" s:x="0" s:y="10" s:pid="in0" id="port_slider_mod~slider_2"><text x="-3" y="-4" class="inputPortLabel cell_slider_mod">slider_2</text></g><g transform="translate(0,110)" s:x="0" s:y="10" s:pid="in0" id="port_slider_mod~slider_3"><text x="-3" y="-4" class="inputPortLabel cell_slider_mod">slider_3</text></g><g transform="translate(0,130)" s:x="0" s:y="10" s:pid="in0" id="port_slider_mod~slider_4"><text x="-3" y="-4" class="inputPortLabel cell_slider_mod">slider_4</text></g><g transform="translate(0,150)" s:x="0" s:y="10" s:pid="in0" id="port_slider_mod~write_number_select"><text x="-3" y="-4" class="inputPortLabel cell_slider_mod">write_number_select</text></g><g transform="translate(30,10)" s:x="30" s:y="10" s:pid="out0" id="port_slider_mod~number_1"><text x="5" y="-4" style="fill:#000; stroke:none" class="cell_slider_mod">number_1</text></g><g transform="translate(30,30)" s:x="30" s:y="10" s:pid="out0" id="port_slider_mod~number_2"><text x="5" y="-4" style="fill:#000; stroke:none" class="cell_slider_mod">number_2</text></g></g><g s:type="inputExt" transform="translate(12,22)" s:width="30" s:height="20" id="cell_clk"><text x="15" y="-4" class="nodelabel cell_clk" s:attribute="ref">clk</text><s:alias val="$_inputExt_"/><path d="M0,0 L0,20 L15,20 L30,10 L15,0 Z" class="cell_clk"/><g s:x="30" s:y="10" s:pid="Y"/></g><g s:type="inputExt" transform="translate(12,152)" s:width="30" s:height="20" id="cell_reset"><text x="15" y="-4" class="nodelabel cell_reset" s:attribute="ref">reset</text><s:alias val="$_inputExt_"/><path d="M0,0 L0,20 L15,20 L30,10 L15,0 Z" class="cell_reset"/><g s:x="30" s:y="10" s:pid="Y"/></g><g s:type="inputExt" transform="translate(12,87)" s:width="30" s:height="20" id="cell_button_clr_undeb"><text x="15" y="-4" class="nodelabel cell_button_clr_undeb" s:attribute="ref">button_clr_undeb</text><s:alias val="$_inputExt_"/><path d="M0,0 L0,20 L15,20 L30,10 L15,0 Z" class="cell_button_clr_undeb"/><g s:x="30" s:y="10" s:pid="Y"/></g><g s:type="inputExt" transform="translate(12,468.5)" s:width="30" s:height="20" id="cell_button_ent_undeb"><text x="15" y="-4" class="nodelabel cell_button_ent_undeb" s:attribute="ref">button_ent_undeb</text><s:alias val="$_inputExt_"/><path d="M0,0 L0,20 L15,20 L30,10 L15,0 Z" class="cell_button_ent_undeb"/><g s:x="30" s:y="10" s:pid="Y"/></g><g s:type="inputExt" transform="translate(477,183)" s:width="30" s:height="20" id="cell_sld_1"><text x="15" y="-4" class="nodelabel cell_sld_1" s:attribute="ref">sld_1</text><s:alias val="$_inputExt_"/><path d="M0,0 L0,20 L15,20 L30,10 L15,0 Z" class="cell_sld_1"/><g s:x="30" s:y="10" s:pid="Y"/></g><g s:type="inputExt" transform="translate(477,248)" s:width="30" s:height="20" id="cell_sld_2"><text x="15" y="-4" class="nodelabel cell_sld_2" s:attribute="ref">sld_2</text><s:alias val="$_inputExt_"/><path d="M0,0 L0,20 L15,20 L30,10 L15,0 Z" class="cell_sld_2"/><g s:x="30" s:y="10" s:pid="Y"/></g><g s:type="inputExt" transform="translate(477,313)" s:width="30" s:height="20" id="cell_sld_3"><text x="15" y="-4" class="nodelabel cell_sld_3" s:attribute="ref">sld_3</text><s:alias val="$_inputExt_"/><path d="M0,0 L0,20 L15,20 L30,10 L15,0 Z" class="cell_sld_3"/><g s:x="30" s:y="10" s:pid="Y"/></g><g s:type="inputExt" transform="translate(477,378)" s:width="30" s:height="20" id="cell_sld_4"><text x="15" y="-4" class="nodelabel cell_sld_4" s:attribute="ref">sld_4</text><s:alias val="$_inputExt_"/><path d="M0,0 L0,20 L15,20 L30,10 L15,0 Z" class="cell_sld_4"/><g s:x="30" s:y="10" s:pid="Y"/></g><g s:type="inputExt" transform="translate(972,188)" s:width="30" s:height="20" id="cell_sld_arith"><text x="15" y="-4" class="nodelabel cell_sld_arith" s:attribute="ref">sld_arith</text><s:alias val="$_inputExt_"/><path d="M0,0 L0,20 L15,20 L30,10 L15,0 Z" class="cell_sld_arith"/><g s:x="30" s:y="10" s:pid="Y"/></g><g s:type="outputExt" transform="translate(1888.5,351)" s:width="30" s:height="20" id="cell_digit_select"><text x="15" y="-4" class="nodelabel cell_digit_select" s:attribute="ref">digit_select</text><s:alias val="$_outputExt_"/><path d="M30,0 L30,20 L15,20 L0,10 L15,0 Z" class="cell_digit_select"/><g s:x="0" s:y="10" s:pid="A"/></g><g s:type="outputExt" transform="translate(1888.5,416)" s:width="30" s:height="20" id="cell_led_select"><text x="15" y="-4" class="nodelabel cell_led_select" s:attribute="ref">led_select</text><s:alias val="$_outputExt_"/><path d="M30,0 L30,20 L15,20 L0,10 L15,0 Z" class="cell_led_select"/><g s:x="0" s:y="10" s:pid="A"/></g><g s:type="constant" transform="translate(245,576)" s:width="30" s:height="20" id="cell_1"><text x="15" y="-4" class="nodelabel cell_1" s:attribute="ref">1</text><s:alias val="$_constant_"/><rect width="30" height="20" class="cell_1"/><g s:x="31" s:y="10" s:pid="Y"/></g><g s:type="constant" transform="translate(972,516)" s:width="30" s:height="20" id="cell_10"><text x="15" y="-4" class="nodelabel cell_10" s:attribute="ref">10</text><s:alias val="$_constant_"/><rect width="30" height="20" class="cell_10"/><g s:x="31" s:y="10" s:pid="Y"/></g><g s:type="join" transform="translate(1452,435.5)" s:width="4" s:height="40" id="cell_$join$,31,32,33,34,35,36,37,38,39,40,41,42,43,44,45,46,47,48,49,50,51,52,53,54,55,56,57,58,59,60,61,62,63,64,65,66,67,68,69,70,71,72,"><rect width="5" height="60" class="splitjoinBody" s:generic="body"/><s:alias val="$_join_"/><g s:x="5" s:y="20" s:pid="out"/><g transform="translate(0,10)" s:x="0" s:y="10" s:pid="in0"><text x="-3" y="-4" class="inputPortLabel">0:13</text></g><g transform="translate(0,30)" s:x="0" s:y="10" s:pid="in0"><text x="-3" y="-4" class="inputPortLabel">14:27</text></g><g transform="translate(0,50)" s:x="0" s:y="10" s:pid="in0"><text x="-3" y="-4" class="inputPortLabel">28:41</text></g></g><g s:type="join" transform="translate(1446.25,585.5)" s:width="4" s:height="40" id="cell_$join$,73,74,75,"><rect width="5" height="60" class="splitjoinBody" s:generic="body"/><s:alias val="$_join_"/><g s:x="5" s:y="20" s:pid="out"/><g transform="translate(0,10)" s:x="0" s:y="10" s:pid="in0"><text x="-3" y="-4" class="inputPortLabel">0</text></g><g transform="translate(0,30)" s:x="0" s:y="10" s:pid="in0"><text x="-3" y="-4" class="inputPortLabel">1</text></g><g transform="translate(0,50)" s:x="0" s:y="10" s:pid="in0"><text x="-3" y="-4" class="inputPortLabel">2</text></g></g><line x1="508" x2="637" y1="438.5" y2="438.5" class="net_22 width_1" style="stroke-width: 1"/><line x1="637" x2="637" y1="438.5" y2="408" class="net_22 width_1" style="stroke-width: 1"/><line x1="637" x2="377" y1="408" y2="408" class="net_22 width_1" style="stroke-width: 1"/><line x1="377" x2="377" y1="408" y2="448.5" class="net_22 width_1" style="stroke-width: 1"/><circle cx="637" cy="438.5" r="2" style="fill:#000" class="net_22 width_1"/><line x1="377" x2="392" y1="448.5" y2="448.5" class="net_22 width_1" style="stroke-width: 1"/><line x1="508" x2="832" y1="438.5" y2="438.5" class="net_22 width_1" style="stroke-width: 1"/><line x1="276" x2="347" y1="586" y2="586" class="net_90 width_1" style="stroke-width: 1"/><line x1="347" x2="347" y1="586" y2="463.5" class="net_90 width_1" style="stroke-width: 1"/><circle cx="347" cy="586" r="2" style="fill:#000" class="net_90 width_1"/><line x1="347" x2="392" y1="463.5" y2="463.5" class="net_90 width_1" style="stroke-width: 1"/><line x1="276" x2="347" y1="586" y2="586" class="net_90 width_1" style="stroke-width: 1"/><line x1="347" x2="347" y1="586" y2="718.5" class="net_90 width_1" style="stroke-width: 1"/><line x1="347" x2="1890.5" y1="718.5" y2="718.5" class="net_90 width_1" style="stroke-width: 1"/><line x1="276" x2="1365.3333333333333" y1="586" y2="586" class="net_90 width_1" style="stroke-width: 1"/><line x1="1003" x2="1132" y1="636" y2="636" class="net_24,25 width_2" style="stroke-width: 2"/><line x1="1132" x2="1132" y1="636" y2="702.5" class="net_24,25 width_2" style="stroke-width: 2"/><line x1="1132" x2="1863.5" y1="702.5" y2="702.5" class="net_24,25 width_2" style="stroke-width: 2"/><line x1="1863.5" x2="1863.5" y1="702.5" y2="703.5" class="net_24,25 width_2" style="stroke-width: 2"/><circle cx="1132" cy="636" r="3" style="fill:#000" class="net_24,25 width_2"/><line x1="1863.5" x2="1890.5" y1="703.5" y2="703.5" class="net_24,25 width_2" style="stroke-width: 2"/><line x1="1003" x2="1132" y1="636" y2="636" class="net_24,25 width_2" style="stroke-width: 2"/><line x1="1132" x2="1132" y1="636" y2="506" class="net_24,25 width_2" style="stroke-width: 2"/><line x1="1132" x2="1336" y1="506" y2="506" class="net_24,25 width_2" style="stroke-width: 2"/><line x1="1336" x2="1336" y1="506" y2="511" class="net_24,25 width_2" style="stroke-width: 2"/><line x1="1336" x2="1365.3333333333333" y1="511" y2="511" class="net_24,25 width_2" style="stroke-width: 2"/><line x1="1003" x2="1132" y1="636" y2="636" class="net_24,25 width_2" style="stroke-width: 2"/><line x1="1132" x2="1132" y1="636" y2="570" class="net_24,25 width_2" style="stroke-width: 2"/><line x1="1132" x2="1336" y1="570" y2="570" class="net_24,25 width_2" style="stroke-width: 2"/><line x1="1336" x2="1336" y1="570" y2="571" class="net_24,25 width_2" style="stroke-width: 2"/><circle cx="1132" cy="570" r="3" style="fill:#000" class="net_24,25 width_2"/><line x1="1336" x2="1365.3333333333333" y1="571" y2="571" class="net_24,25 width_2" style="stroke-width: 2"/><line x1="1003" x2="1361" y1="636" y2="636" class="net_24,25 width_2" style="stroke-width: 2"/><line x1="42" x2="138" y1="32" y2="32" class="net_2 width_1" style="stroke-width: 1"/><line x1="138" x2="138" y1="32" y2="427" class="net_2 width_1" style="stroke-width: 1"/><line x1="138" x2="427" y1="427" y2="427" class="net_2 width_1" style="stroke-width: 1"/><line x1="427" x2="427" y1="427" y2="438.5" class="net_2 width_1" style="stroke-width: 1"/><circle cx="138" cy="427" r="2" style="fill:#000" class="net_2 width_1"/><line x1="427" x2="477" y1="438.5" y2="438.5" class="net_2 width_1" style="stroke-width: 1"/><line x1="42" x2="138" y1="32" y2="32" class="net_2 width_1" style="stroke-width: 1"/><line x1="138" x2="138" y1="32" y2="636" class="net_2 width_1" style="stroke-width: 1"/><line x1="138" x2="972" y1="636" y2="636" class="net_2 width_1" style="stroke-width: 1"/><line x1="42" x2="138" y1="32" y2="32" class="net_2 width_1" style="stroke-width: 1"/><line x1="138" x2="138" y1="32" y2="118" class="net_2 width_1" style="stroke-width: 1"/><line x1="138" x2="1616.5" y1="118" y2="118" class="net_2 width_1" style="stroke-width: 1"/><line x1="1616.5" x2="1616.5" y1="118" y2="406" class="net_2 width_1" style="stroke-width: 1"/><circle cx="138" cy="118" r="2" style="fill:#000" class="net_2 width_1"/><line x1="1616.5" x2="1710.5" y1="406" y2="406" class="net_2 width_1" style="stroke-width: 1"/><line x1="42" x2="138" y1="32" y2="32" class="net_2 width_1" style="stroke-width: 1"/><line x1="138" x2="138" y1="32" y2="498.5" class="net_2 width_1" style="stroke-width: 1"/><circle cx="138" cy="498.5" r="2" style="fill:#000" class="net_2 width_1"/><line x1="138" x2="245" y1="498.5" y2="498.5" class="net_2 width_1" style="stroke-width: 1"/><line x1="42" x2="138" y1="32" y2="32" class="net_2 width_1" style="stroke-width: 1"/><line x1="138" x2="138" y1="32" y2="151" class="net_2 width_1" style="stroke-width: 1"/><line x1="138" x2="697" y1="151" y2="151" class="net_2 width_1" style="stroke-width: 1"/><line x1="697" x2="697" y1="151" y2="318.5" class="net_2 width_1" style="stroke-width: 1"/><circle cx="138" cy="151" r="2" style="fill:#000" class="net_2 width_1"/><line x1="697" x2="832" y1="318.5" y2="318.5" class="net_2 width_1" style="stroke-width: 1"/><line x1="416" x2="427" y1="456" y2="456" class="net_23 width_1" style="stroke-width: 1"/><line x1="427" x2="427" y1="456" y2="458.5" class="net_23 width_1" style="stroke-width: 1"/><line x1="427" x2="477" y1="458.5" y2="458.5" class="net_23 width_1" style="stroke-width: 1"/><line x1="276" x2="477" y1="478.5" y2="478.5" class="net_28 width_1" style="stroke-width: 1"/><line x1="276" x2="357" y1="478.5" y2="478.5" class="net_28 width_1" style="stroke-width: 1"/><line x1="357" x2="357" y1="478.5" y2="676" class="net_28 width_1" style="stroke-width: 1"/><circle cx="357" cy="478.5" r="2" style="fill:#000" class="net_28 width_1"/><line x1="357" x2="972" y1="676" y2="676" class="net_28 width_1" style="stroke-width: 1"/><line x1="417" x2="427" y1="613.5" y2="613.5" class="net_29 width_1" style="stroke-width: 1"/><line x1="427" x2="427" y1="613.5" y2="498.5" class="net_29 width_1" style="stroke-width: 1"/><circle cx="427" cy="613.5" r="2" style="fill:#000" class="net_29 width_1"/><line x1="427" x2="477" y1="498.5" y2="498.5" class="net_29 width_1" style="stroke-width: 1"/><line x1="417" x2="427" y1="613.5" y2="613.5" class="net_29 width_1" style="stroke-width: 1"/><line x1="427" x2="427" y1="613.5" y2="696" class="net_29 width_1" style="stroke-width: 1"/><line x1="427" x2="972" y1="696" y2="696" class="net_29 width_1" style="stroke-width: 1"/><line x1="1914.5" x2="1970.5" y1="711" y2="711" class="net_26,27 width_2" style="stroke-width: 2"/><line x1="1970.5" x2="1970.5" y1="711" y2="733.5" class="net_26,27 width_2" style="stroke-width: 2"/><line x1="1970.5" x2="932" y1="733.5" y2="733.5" class="net_26,27 width_2" style="stroke-width: 2"/><line x1="932" x2="932" y1="733.5" y2="656" class="net_26,27 width_2" style="stroke-width: 2"/><line x1="932" x2="972" y1="656" y2="656" class="net_26,27 width_2" style="stroke-width: 2"/><line x1="42" x2="128" y1="162" y2="162" class="net_3 width_1" style="stroke-width: 1"/><line x1="128" x2="128" y1="162" y2="606" class="net_3 width_1" style="stroke-width: 1"/><circle cx="128" cy="162" r="2" style="fill:#000" class="net_3 width_1"/><line x1="128" x2="389" y1="606" y2="606" class="net_3 width_1" style="stroke-width: 1"/><line x1="42" x2="128" y1="162" y2="162" class="net_3 width_1" style="stroke-width: 1"/><line x1="128" x2="128" y1="162" y2="129" class="net_3 width_1" style="stroke-width: 1"/><line x1="128" x2="1606.5" y1="129" y2="129" class="net_3 width_1" style="stroke-width: 1"/><line x1="1606.5" x2="1606.5" y1="129" y2="426" class="net_3 width_1" style="stroke-width: 1"/><line x1="1606.5" x2="1710.5" y1="426" y2="426" class="net_3 width_1" style="stroke-width: 1"/><line x1="42" x2="128" y1="162" y2="162" class="net_3 width_1" style="stroke-width: 1"/><line x1="128" x2="128" y1="162" y2="518.5" class="net_3 width_1" style="stroke-width: 1"/><circle cx="128" cy="518.5" r="2" style="fill:#000" class="net_3 width_1"/><line x1="128" x2="245" y1="518.5" y2="518.5" class="net_3 width_1" style="stroke-width: 1"/><line x1="42" x2="687" y1="162" y2="162" class="net_3 width_1" style="stroke-width: 1"/><line x1="687" x2="687" y1="162" y2="338.5" class="net_3 width_1" style="stroke-width: 1"/><line x1="687" x2="832" y1="338.5" y2="338.5" class="net_3 width_1" style="stroke-width: 1"/><line x1="276" x2="367" y1="458.5" y2="458.5" class="net_30 width_1" style="stroke-width: 1"/><line x1="367" x2="367" y1="458.5" y2="621" class="net_30 width_1" style="stroke-width: 1"/><circle cx="367" cy="458.5" r="2" style="fill:#000" class="net_30 width_1"/><line x1="367" x2="389" y1="621" y2="621" class="net_30 width_1" style="stroke-width: 1"/><line x1="276" x2="367" y1="458.5" y2="458.5" class="net_30 width_1" style="stroke-width: 1"/><line x1="367" x2="367" y1="458.5" y2="140" class="net_30 width_1" style="stroke-width: 1"/><line x1="367" x2="707" y1="140" y2="140" class="net_30 width_1" style="stroke-width: 1"/><line x1="707" x2="707" y1="140" y2="298.5" class="net_30 width_1" style="stroke-width: 1"/><line x1="707" x2="832" y1="298.5" y2="298.5" class="net_30 width_1" style="stroke-width: 1"/><line x1="1458" x2="1532" y1="456" y2="456" class="net_31,32,33,34,35,36,37,38,39,40,41,42,43,44,45,46,47,48,49,50,51,52,53,54,55,56,57,58,59,60,61,62,63,64,65,66,67,68,69,70,71,72 width_42" style="stroke-width: 2"/><line x1="1452.25" x2="1545" y1="606" y2="606" class="net_73,74,75 width_3" style="stroke-width: 2"/><line x1="1545" x2="1545" y1="606" y2="464" class="net_73,74,75 width_3" style="stroke-width: 2"/><line x1="1003" x2="1365.3333333333333" y1="526" y2="526" class="net_92,93 width_2" style="stroke-width: 2"/><line x1="1002" x2="1132" y1="198" y2="198" class="net_10 width_1" style="stroke-width: 1"/><line x1="1132" x2="1132" y1="198" y2="227" class="net_10 width_1" style="stroke-width: 1"/><line x1="1132" x2="1242" y1="227" y2="227" class="net_10 width_1" style="stroke-width: 1"/><line x1="863" x2="922" y1="298.5" y2="298.5" class="net_59,60,61,62,63,64,65,66,67,68,69,70,71,72 width_14" style="stroke-width: 2"/><line x1="922" x2="922" y1="298.5" y2="247" class="net_59,60,61,62,63,64,65,66,67,68,69,70,71,72 width_14" style="stroke-width: 2"/><circle cx="922" cy="298.5" r="3" style="fill:#000" class="net_59,60,61,62,63,64,65,66,67,68,69,70,71,72 width_14"/><line x1="922" x2="1242" y1="247" y2="247" class="net_59,60,61,62,63,64,65,66,67,68,69,70,71,72 width_14" style="stroke-width: 2"/><line x1="863" x2="922" y1="298.5" y2="298.5" class="net_59,60,61,62,63,64,65,66,67,68,69,70,71,72 width_14" style="stroke-width: 2"/><line x1="922" x2="922" y1="298.5" y2="486" class="net_59,60,61,62,63,64,65,66,67,68,69,70,71,72 width_14" style="stroke-width: 2"/><line x1="922" x2="1452" y1="486" y2="486" class="net_59,60,61,62,63,64,65,66,67,68,69,70,71,72 width_14" style="stroke-width: 2"/><line x1="863" x2="932" y1="318.5" y2="318.5" class="net_45,46,47,48,49,50,51,52,53,54,55,56,57,58 width_14" style="stroke-width: 2"/><line x1="932" x2="932" y1="318.5" y2="267" class="net_45,46,47,48,49,50,51,52,53,54,55,56,57,58 width_14" style="stroke-width: 2"/><circle cx="932" cy="318.5" r="3" style="fill:#000" class="net_45,46,47,48,49,50,51,52,53,54,55,56,57,58 width_14"/><line x1="932" x2="1242" y1="267" y2="267" class="net_45,46,47,48,49,50,51,52,53,54,55,56,57,58 width_14" style="stroke-width: 2"/><line x1="863" x2="1402" y1="318.5" y2="318.5" class="net_45,46,47,48,49,50,51,52,53,54,55,56,57,58 width_14" style="stroke-width: 2"/><line x1="1402" x2="1402" y1="318.5" y2="466" class="net_45,46,47,48,49,50,51,52,53,54,55,56,57,58 width_14" style="stroke-width: 2"/><line x1="1402" x2="1452" y1="466" y2="466" class="net_45,46,47,48,49,50,51,52,53,54,55,56,57,58 width_14" style="stroke-width: 2"/><line x1="1557.5" x2="1710.5" y1="446" y2="446" class="net_76,77,78,79,80,81,82,83,84,85,86,87,88,89 width_14" style="stroke-width: 2"/><line x1="42" x2="118" y1="97" y2="97" class="net_4 width_1" style="stroke-width: 1"/><line x1="118" x2="118" y1="97" y2="458.5" class="net_4 width_1" style="stroke-width: 1"/><line x1="118" x2="245" y1="458.5" y2="458.5" class="net_4 width_1" style="stroke-width: 1"/><line x1="42" x2="245" y1="478.5" y2="478.5" class="net_5 width_1" style="stroke-width: 1"/><line x1="507" x2="677" y1="193" y2="193" class="net_6 width_1" style="stroke-width: 1"/><line x1="677" x2="677" y1="193" y2="358.5" class="net_6 width_1" style="stroke-width: 1"/><line x1="677" x2="832" y1="358.5" y2="358.5" class="net_6 width_1" style="stroke-width: 1"/><line x1="507" x2="667" y1="258" y2="258" class="net_7 width_1" style="stroke-width: 1"/><line x1="667" x2="667" y1="258" y2="378.5" class="net_7 width_1" style="stroke-width: 1"/><line x1="667" x2="832" y1="378.5" y2="378.5" class="net_7 width_1" style="stroke-width: 1"/><line x1="507" x2="657" y1="323" y2="323" class="net_8 width_1" style="stroke-width: 1"/><line x1="657" x2="657" y1="323" y2="398.5" class="net_8 width_1" style="stroke-width: 1"/><line x1="657" x2="832" y1="398.5" y2="398.5" class="net_8 width_1" style="stroke-width: 1"/><line x1="507" x2="647" y1="388" y2="388" class="net_9 width_1" style="stroke-width: 1"/><line x1="647" x2="647" y1="388" y2="418.5" class="net_9 width_1" style="stroke-width: 1"/><line x1="647" x2="832" y1="418.5" y2="418.5" class="net_9 width_1" style="stroke-width: 1"/><line x1="1741.5" x2="1824.5" y1="406" y2="406" class="net_11,12,13,14 width_4" style="stroke-width: 2"/><line x1="1824.5" x2="1824.5" y1="406" y2="361" class="net_11,12,13,14 width_4" style="stroke-width: 2"/><line x1="1824.5" x2="1888.5" y1="361" y2="361" class="net_11,12,13,14 width_4" style="stroke-width: 2"/><line x1="1741.5" x2="1888.5" y1="426" y2="426" class="net_15,16,17,18,19,20,21 width_7" style="stroke-width: 2"/><line x1="1273" x2="1412" y1="227" y2="227" class="net_31,32,33,34,35,36,37,38,39,40,41,42,43,44 width_14" style="stroke-width: 2"/><line x1="1412" x2="1412" y1="227" y2="446" class="net_31,32,33,34,35,36,37,38,39,40,41,42,43,44 width_14" style="stroke-width: 2"/><line x1="1412" x2="1452" y1="446" y2="446" class="net_31,32,33,34,35,36,37,38,39,40,41,42,43,44 width_14" style="stroke-width: 2"/><line x1="1388.3333333333333" x2="1412" y1="518.5" y2="518.5" class="net_73 width_1" style="stroke-width: 1"/><line x1="1412" x2="1412" y1="518.5" y2="596" class="net_73 width_1" style="stroke-width: 1"/><line x1="1412" x2="1446.25" y1="596" y2="596" class="net_73 width_1" style="stroke-width: 1"/><line x1="1388.3333333333333" x2="1402" y1="578.5" y2="578.5" class="net_74 width_1" style="stroke-width: 1"/><line x1="1402" x2="1402" y1="578.5" y2="616" class="net_74 width_1" style="stroke-width: 1"/><line x1="1402" x2="1446.25" y1="616" y2="616" class="net_74 width_1" style="stroke-width: 1"/><line x1="1389" x2="1446.25" y1="636" y2="636" class="net_75 width_1" style="stroke-width: 1"/><rect x="1240.5" y="631" width="16" height="9" class="net_24,25 width_2 busLabel_2" style="fill: white; stroke: none"/><text x="1239.5" y="639" class="net_24,25 width_2 busLabel_2">/2/</text><rect x="1240.5" y="631" width="16" height="9" class="net_24,25 width_2 busLabel_2" style="fill: white; stroke: none"/><text x="1239.5" y="639" class="net_24,25 width_2 busLabel_2">/2/</text><rect x="1240.5" y="631" width="16" height="9" class="net_24,25 width_2 busLabel_2" style="fill: white; stroke: none"/><text x="1239.5" y="639" class="net_24,25 width_2 busLabel_2">/2/</text><rect x="1240.5" y="631" width="16" height="9" class="net_24,25 width_2 busLabel_2" style="fill: white; stroke: none"/><text x="1239.5" y="639" class="net_24,25 width_2 busLabel_2">/2/</text><rect x="1494" y="728.5" width="16" height="9" class="net_26,27 width_2 busLabel_2" style="fill: white; stroke: none"/><text x="1493" y="736.5" class="net_26,27 width_2 busLabel_2">/2/</text><rect x="1494" y="451" width="22" height="9" class="net_31,32,33,34,35,36,37,38,39,40,41,42,43,44,45,46,47,48,49,50,51,52,53,54,55,56,57,58,59,60,61,62,63,64,65,66,67,68,69,70,71,72 width_42 busLabel_42" style="fill: white; stroke: none"/><text x="1493" y="459" class="net_31,32,33,34,35,36,37,38,39,40,41,42,43,44,45,46,47,48,49,50,51,52,53,54,55,56,57,58,59,60,61,62,63,64,65,66,67,68,69,70,71,72 width_42 busLabel_42">/42/</text><rect x="1494" y="601" width="16" height="9" class="net_73,74,75 width_3 busLabel_3" style="fill: white; stroke: none"/><text x="1493" y="609" class="net_73,74,75 width_3 busLabel_3">/3/</text><rect x="1240.5" y="521" width="16" height="9" class="net_92,93 width_2 busLabel_2" style="fill: white; stroke: none"/><text x="1239.5" y="529" class="net_92,93 width_2 busLabel_2">/2/</text><rect x="1240.5" y="481" width="22" height="9" class="net_59,60,61,62,63,64,65,66,67,68,69,70,71,72 width_14 busLabel_14" style="fill: white; stroke: none"/><text x="1239.5" y="489" class="net_59,60,61,62,63,64,65,66,67,68,69,70,71,72 width_14 busLabel_14">/14/</text><rect x="1240.5" y="481" width="22" height="9" class="net_59,60,61,62,63,64,65,66,67,68,69,70,71,72 width_14 busLabel_14" style="fill: white; stroke: none"/><text x="1239.5" y="489" class="net_59,60,61,62,63,64,65,66,67,68,69,70,71,72 width_14 busLabel_14">/14/</text><rect x="1240.5" y="313.5" width="22" height="9" class="net_45,46,47,48,49,50,51,52,53,54,55,56,57,58 width_14 busLabel_14" style="fill: white; stroke: none"/><text x="1239.5" y="321.5" class="net_45,46,47,48,49,50,51,52,53,54,55,56,57,58 width_14 busLabel_14">/14/</text><rect x="1240.5" y="313.5" width="22" height="9" class="net_45,46,47,48,49,50,51,52,53,54,55,56,57,58 width_14 busLabel_14" style="fill: white; stroke: none"/><text x="1239.5" y="321.5" class="net_45,46,47,48,49,50,51,52,53,54,55,56,57,58 width_14 busLabel_14">/14/</text><rect x="1593.5" y="441" width="22" height="9" class="net_76,77,78,79,80,81,82,83,84,85,86,87,88,89 width_14 busLabel_14" style="fill: white; stroke: none"/><text x="1592.5" y="449" class="net_76,77,78,79,80,81,82,83,84,85,86,87,88,89 width_14 busLabel_14">/14/</text><rect x="1850.5" y="356" width="16" height="9" class="net_11,12,13,14 width_4 busLabel_4" style="fill: white; stroke: none"/><text x="1849.5" y="364" class="net_11,12,13,14 width_4 busLabel_4">/4/</text><rect x="1850.5" y="421" width="16" height="9" class="net_15,16,17,18,19,20,21 width_7 busLabel_7" style="fill: white; stroke: none"/><text x="1849.5" y="429" class="net_15,16,17,18,19,20,21 width_7 busLabel_7">/7/</text><rect x="1375.5" y="222" width="22" height="9" class="net_31,32,33,34,35,36,37,38,39,40,41,42,43,44 width_14 busLabel_14" style="fill: white; stroke: none"/><text x="1374.5" y="230" class="net_31,32,33,34,35,36,37,38,39,40,41,42,43,44 width_14 busLabel_14">/14/</text></svg>