<svg xmlns="http://www.w3.org/2000/svg" xmlns:xlink="http://www.w3.org/1999/xlink" xmlns:s="https://github.com/nturley/netlistsvg" width="697" height="331.5"><style>svg {
  stroke:#000;
  fill:none;
}
text {
  fill:#000;
  stroke:none;
  font-size:10px;
  font-weight: bold;
  font-family: "Courier New", monospace;
}
line {
    stroke-linecap: round;
}
.nodelabel {
  text-anchor: middle;
}
.inputPortLabel {
  text-anchor: end;
}
.splitjoinBody {
  fill:#000;
}</style><g s:type="add" transform="translate(85.33333333333333,164.5)" s:width="25" s:height="25" id="cell_$add$debounce.sv:20$25"><s:alias val="$add"/><circle r="12.5" cx="12.5" cy="12.5" class="cell_$add$debounce.sv:20$25"/><line x1="7.5" x2="17.5" y1="12.5" y2="12.5" class="cell_$add$debounce.sv:20$25"/><line x1="12.5" x2="12.5" y1="7.5" y2="17.5" class="cell_$add$debounce.sv:20$25"/><g s:x="2" s:y="5" s:pid="A"/><g s:x="2" s:y="20" s:pid="B"/><g s:x="26" s:y="12.5" s:pid="Y"/></g><g s:type="and" transform="translate(590,37)" s:width="30" s:height="25" id="cell_$and$debounce.sv:26$28"><s:alias val="$and"/><s:alias val="$logic_and"/><s:alias val="$_AND_"/><s:alias val="$reduce_and"/><path d="M0,0 L0,25 L15,25 A15 12.5 0 0 0 15,0 Z" class="cell_$and$debounce.sv:26$28"/><g s:x="0" s:y="5" s:pid="A"/><g s:x="0" s:y="20" s:pid="B"/><g s:x="30" s:y="12.5" s:pid="Y"/></g><g s:type="generic" transform="translate(245,146.5)" s:width="30" s:height="40" id="cell_$auto$ff.cc:266:slice$107"><text x="15" y="-4" class="nodelabel cell_$auto$ff.cc:266:slice$107" s:attribute="ref">$sdffe-bus</text><rect width="30" height="80" s:generic="body" class="cell_$auto$ff.cc:266:slice$107"/><g transform="translate(0,10)" s:x="0" s:y="10" s:pid="in0" id="port_$auto$ff.cc:266:slice$107~CLK"><text x="-3" y="-4" class="inputPortLabel cell_$auto$ff.cc:266:slice$107">CLK</text></g><g transform="translate(0,30)" s:x="0" s:y="10" s:pid="in0" id="port_$auto$ff.cc:266:slice$107~D"><text x="-3" y="-4" class="inputPortLabel cell_$auto$ff.cc:266:slice$107">D</text></g><g transform="translate(0,50)" s:x="0" s:y="10" s:pid="in0" id="port_$auto$ff.cc:266:slice$107~EN"><text x="-3" y="-4" class="inputPortLabel cell_$auto$ff.cc:266:slice$107">EN</text></g><g transform="translate(0,70)" s:x="0" s:y="10" s:pid="in0" id="port_$auto$ff.cc:266:slice$107~SRST"><text x="-3" y="-4" class="inputPortLabel cell_$auto$ff.cc:266:slice$107">SRST</text></g><g transform="translate(30,10)" s:x="30" s:y="10" s:pid="out0" id="port_$auto$ff.cc:266:slice$107~Q"><text x="5" y="-4" style="fill:#000; stroke:none" class="cell_$auto$ff.cc:266:slice$107">Q</text></g></g><g s:type="eq" transform="translate(470.5,249.5)" s:width="25" s:height="25" id="cell_$eq$debounce.sv:17$24"><s:alias val="$eq"/><s:alias val="$eqx"/><circle r="12.5" cx="12.5" cy="12.5" class="cell_$eq$debounce.sv:17$24"/><line x1="7.5" x2="17.5" y1="10" y2="10" class="cell_$eq$debounce.sv:17$24"/><line x1="7.5" x2="17.5" y1="15" y2="15" class="cell_$eq$debounce.sv:17$24"/><g s:x="2" s:y="5" s:pid="A"/><g s:x="2" s:y="20" s:pid="B"/><g s:x="25" s:y="12.5" s:pid="Y"/></g><g s:type="or" transform="translate(155,239.5)" s:width="30" s:height="25" id="cell_$or$debounce.sv:12$22"><s:alias val="$or"/><s:alias val="$logic_or"/><s:alias val="$_OR_"/><s:alias val="$reduce_or"/><s:alias val="$reduce_bool"/><path d="M0,0 A30 25 0 0 1 0,25 A30 25 0 0 0 30,12.5 A30 25 0 0 0 0,0" class="cell_$or$debounce.sv:12$22"/><g s:x="2" s:y="5" s:pid="A"/><g s:x="2" s:y="20" s:pid="B"/><g s:x="30" s:y="12.5" s:pid="Y"/></g><g s:type="mux" transform="translate(535,22)" s:width="20" s:height="40" id="cell_$ternary$debounce.sv:24$27"><s:alias val="$pmux"/><s:alias val="$mux"/><s:alias val="$_MUX_"/><path d="M0,0 L20,10 L20,30 L0,40 Z" class="cell_$ternary$debounce.sv:24$27"/><text x="5" y="32" class="nodelabel cell_$ternary$debounce.sv:24$27" s:attribute="">1</text><text x="5" y="13" class="nodelabel cell_$ternary$debounce.sv:24$27" s:attribute="">0</text><g s:x="0" s:y="10" s:pid="A"/><g s:x="0" s:y="30" s:pid="B"/><g s:x="10" s:y="35" s:pid="S"/><g s:x="20" s:y="20" s:pid="Y"/></g><g s:type="inputExt" transform="translate(155,118)" s:width="30" s:height="20" id="cell_clk"><text x="15" y="-4" class="nodelabel cell_clk" s:attribute="ref">clk</text><s:alias val="$_inputExt_"/><path d="M0,0 L0,20 L15,20 L30,10 L15,0 Z" class="cell_clk"/><g s:x="30" s:y="10" s:pid="Y"/></g><g s:type="inputExt" transform="translate(78,234.5)" s:width="30" s:height="20" id="cell_rst_ext"><text x="15" y="-4" class="nodelabel cell_rst_ext" s:attribute="ref">rst_ext</text><s:alias val="$_inputExt_"/><path d="M0,0 L0,20 L15,20 L30,10 L15,0 Z" class="cell_rst_ext"/><g s:x="30" s:y="10" s:pid="Y"/></g><g s:type="inputExt" transform="translate(78,299.5)" s:width="30" s:height="20" id="cell_undeb"><text x="15" y="-4" class="nodelabel cell_undeb" s:attribute="ref">undeb</text><s:alias val="$_inputExt_"/><path d="M0,0 L0,20 L15,20 L30,10 L15,0 Z" class="cell_undeb"/><g s:x="30" s:y="10" s:pid="Y"/></g><g s:type="outputExt" transform="translate(655,39.5)" s:width="30" s:height="20" id="cell_deb"><text x="15" y="-4" class="nodelabel cell_deb" s:attribute="ref">deb</text><s:alias val="$_outputExt_"/><path d="M30,0 L30,20 L15,20 L0,10 L15,0 Z" class="cell_deb"/><g s:x="0" s:y="10" s:pid="A"/></g><g s:type="constant" transform="translate(12,42)" s:width="30" s:height="20" id="cell_1"><text x="15" y="-4" class="nodelabel cell_1" s:attribute="ref">1</text><s:alias val="$_constant_"/><rect width="30" height="20" class="cell_1"/><g s:x="31" s:y="10" s:pid="Y"/></g><g s:type="constant" transform="translate(245,259.5)" s:width="30" s:height="20" id="cell_11110100001000111111"><text x="15" y="-4" class="nodelabel cell_11110100001000111111" s:attribute="ref">0xf423f</text><s:alias val="$_constant_"/><rect width="30" height="20" class="cell_11110100001000111111"/><g s:x="31" s:y="10" s:pid="Y"/></g><g s:type="constant" transform="translate(469,22)" s:width="30" s:height="20" id="cell_0"><text x="15" y="-4" class="nodelabel cell_0" s:attribute="ref">0</text><s:alias val="$_constant_"/><rect width="30" height="20" class="cell_0"/><g s:x="31" s:y="10" s:pid="Y"/></g><line x1="276" x2="405" y1="157" y2="157" class="net_6,7,8,9,10,11,12,13,14,15,16,17,18,19,20,21,22,23,24,25,26,27,28,29,30,31,32 width_27" style="stroke-width: 2"/><line x1="405" x2="405" y1="157" y2="67" class="net_6,7,8,9,10,11,12,13,14,15,16,17,18,19,20,21,22,23,24,25,26,27,28,29,30,31,32 width_27" style="stroke-width: 2"/><line x1="405" x2="63" y1="67" y2="67" class="net_6,7,8,9,10,11,12,13,14,15,16,17,18,19,20,21,22,23,24,25,26,27,28,29,30,31,32 width_27" style="stroke-width: 2"/><line x1="63" x2="63" y1="67" y2="169.5" class="net_6,7,8,9,10,11,12,13,14,15,16,17,18,19,20,21,22,23,24,25,26,27,28,29,30,31,32 width_27" style="stroke-width: 2"/><circle cx="405" cy="157" r="3" style="fill:#000" class="net_6,7,8,9,10,11,12,13,14,15,16,17,18,19,20,21,22,23,24,25,26,27,28,29,30,31,32 width_27"/><line x1="63" x2="87.33333333333333" y1="169.5" y2="169.5" class="net_6,7,8,9,10,11,12,13,14,15,16,17,18,19,20,21,22,23,24,25,26,27,28,29,30,31,32 width_27" style="stroke-width: 2"/><line x1="276" x2="444" y1="157" y2="157" class="net_6,7,8,9,10,11,12,13,14,15,16,17,18,19,20,21,22,23,24,25,26,27,28,29,30,31,32 width_27" style="stroke-width: 2"/><line x1="444" x2="444" y1="157" y2="254.5" class="net_6,7,8,9,10,11,12,13,14,15,16,17,18,19,20,21,22,23,24,25,26,27,28,29,30,31,32 width_27" style="stroke-width: 2"/><line x1="444" x2="472.5" y1="254.5" y2="254.5" class="net_6,7,8,9,10,11,12,13,14,15,16,17,18,19,20,21,22,23,24,25,26,27,28,29,30,31,32 width_27" style="stroke-width: 2"/><line x1="43" x2="53" y1="52" y2="52" class="net_63 width_1" style="stroke-width: 1"/><line x1="53" x2="53" y1="52" y2="184.5" class="net_63 width_1" style="stroke-width: 1"/><circle cx="53" cy="52" r="2" style="fill:#000" class="net_63 width_1"/><line x1="53" x2="87.33333333333333" y1="184.5" y2="184.5" class="net_63 width_1" style="stroke-width: 1"/><line x1="43" x2="535" y1="52" y2="52" class="net_63 width_1" style="stroke-width: 1"/><line x1="555" x2="590" y1="42" y2="42" class="net_60 width_1" style="stroke-width: 1"/><line x1="108" x2="565" y1="309.5" y2="309.5" class="net_4 width_1" style="stroke-width: 1"/><line x1="565" x2="565" y1="309.5" y2="57" class="net_4 width_1" style="stroke-width: 1"/><line x1="565" x2="590" y1="57" y2="57" class="net_4 width_1" style="stroke-width: 1"/><line x1="108" x2="130" y1="309.5" y2="309.5" class="net_4 width_1" style="stroke-width: 1"/><line x1="130" x2="130" y1="309.5" y2="259.5" class="net_4 width_1" style="stroke-width: 1"/><circle cx="130" cy="309.5" r="2" style="fill:#000" class="net_4 width_1"/><line x1="130" x2="157" y1="259.5" y2="259.5" class="net_4 width_1" style="stroke-width: 1"/><line x1="185" x2="195" y1="128" y2="128" class="net_2 width_1" style="stroke-width: 1"/><line x1="195" x2="195" y1="128" y2="157" class="net_2 width_1" style="stroke-width: 1"/><line x1="195" x2="245" y1="157" y2="157" class="net_2 width_1" style="stroke-width: 1"/><line x1="111.33333333333333" x2="245" y1="177" y2="177" class="net_33,34,35,36,37,38,39,40,41,42,43,44,45,46,47,48,49,50,51,52,53,54,55,56,57,58,59 width_27" style="stroke-width: 2"/><line x1="495.5" x2="510" y1="262" y2="262" class="net_61 width_1" style="stroke-width: 1"/><line x1="510" x2="510" y1="262" y2="239.5" class="net_61 width_1" style="stroke-width: 1"/><line x1="510" x2="195" y1="239.5" y2="239.5" class="net_61 width_1" style="stroke-width: 1"/><line x1="195" x2="195" y1="239.5" y2="197" class="net_61 width_1" style="stroke-width: 1"/><circle cx="510" cy="262" r="2" style="fill:#000" class="net_61 width_1"/><line x1="195" x2="245" y1="197" y2="197" class="net_61 width_1" style="stroke-width: 1"/><line x1="495.5" x2="545" y1="262" y2="262" class="net_61 width_1" style="stroke-width: 1"/><line x1="545" x2="545" y1="262" y2="57" class="net_61 width_1" style="stroke-width: 1"/><line x1="185" x2="205" y1="252" y2="252" class="net_62 width_1" style="stroke-width: 1"/><line x1="205" x2="205" y1="252" y2="217" class="net_62 width_1" style="stroke-width: 1"/><line x1="205" x2="245" y1="217" y2="217" class="net_62 width_1" style="stroke-width: 1"/><line x1="276" x2="472.5" y1="269.5" y2="269.5" class="net_64,65,66,67,68,69,70,71,72,73,74,75,76,77,78,79,80,81,82,83 width_20" style="stroke-width: 2"/><line x1="108" x2="157" y1="244.5" y2="244.5" class="net_3 width_1" style="stroke-width: 1"/><line x1="500" x2="535" y1="32" y2="32" class="net_84 width_1" style="stroke-width: 1"/><line x1="620" x2="655" y1="49.5" y2="49.5" class="net_5 width_1" style="stroke-width: 1"/><rect x="431" y="152" width="22" height="9" class="net_6,7,8,9,10,11,12,13,14,15,16,17,18,19,20,21,22,23,24,25,26,27,28,29,30,31,32 width_27 busLabel_27" style="fill: white; stroke: none"/><text x="430" y="160" class="net_6,7,8,9,10,11,12,13,14,15,16,17,18,19,20,21,22,23,24,25,26,27,28,29,30,31,32 width_27 busLabel_27">/27/</text><rect x="431" y="152" width="22" height="9" class="net_6,7,8,9,10,11,12,13,14,15,16,17,18,19,20,21,22,23,24,25,26,27,28,29,30,31,32 width_27 busLabel_27" style="fill: white; stroke: none"/><text x="430" y="160" class="net_6,7,8,9,10,11,12,13,14,15,16,17,18,19,20,21,22,23,24,25,26,27,28,29,30,31,32 width_27 busLabel_27">/27/</text><rect x="169" y="172" width="22" height="9" class="net_33,34,35,36,37,38,39,40,41,42,43,44,45,46,47,48,49,50,51,52,53,54,55,56,57,58,59 width_27 busLabel_27" style="fill: white; stroke: none"/><text x="168" y="180" class="net_33,34,35,36,37,38,39,40,41,42,43,44,45,46,47,48,49,50,51,52,53,54,55,56,57,58,59 width_27 busLabel_27">/27/</text><rect x="431" y="264.5" width="22" height="9" class="net_64,65,66,67,68,69,70,71,72,73,74,75,76,77,78,79,80,81,82,83 width_20 busLabel_20" style="fill: white; stroke: none"/><text x="430" y="272.5" class="net_64,65,66,67,68,69,70,71,72,73,74,75,76,77,78,79,80,81,82,83 width_20 busLabel_20">/20/</text></svg>