<svg xmlns="http://www.w3.org/2000/svg" xmlns:xlink="http://www.w3.org/1999/xlink" xmlns:s="https://github.com/nturley/netlistsvg" width="905" height="224"><style>svg {
  stroke:#000;
  fill:none;
}
text {
  fill:#000;
  stroke:none;
  font-size:10px;
  font-weight: bold;
  font-family: "Courier New", monospace;
}
line {
    stroke-linecap: round;
}
.nodelabel {
  text-anchor: middle;
}
.inputPortLabel {
  text-anchor: end;
}
.splitjoinBody {
  fill:#000;
}</style><g s:type="generic" transform="translate(448,50.5)" s:width="30" s:height="40" id="cell_MUX"><text x="15" y="-4" class="nodelabel cell_MUX" s:attribute="ref">bcd_mux</text><rect width="30" height="120" s:generic="body" class="cell_MUX"/><g transform="translate(0,10)" s:x="0" s:y="10" s:pid="in0" id="port_MUX~clk"><text x="-3" y="-4" class="inputPortLabel cell_MUX">clk</text></g><g transform="translate(0,30)" s:x="0" s:y="10" s:pid="in0" id="port_MUX~number_0"><text x="-3" y="-4" class="inputPortLabel cell_MUX">number_0</text></g><g transform="translate(0,50)" s:x="0" s:y="10" s:pid="in0" id="port_MUX~number_1"><text x="-3" y="-4" class="inputPortLabel cell_MUX">number_1</text></g><g transform="translate(0,70)" s:x="0" s:y="10" s:pid="in0" id="port_MUX~number_2"><text x="-3" y="-4" class="inputPortLabel cell_MUX">number_2</text></g><g transform="translate(0,90)" s:x="0" s:y="10" s:pid="in0" id="port_MUX~number_3"><text x="-3" y="-4" class="inputPortLabel cell_MUX">number_3</text></g><g transform="translate(0,110)" s:x="0" s:y="10" s:pid="in0" id="port_MUX~reset"><text x="-3" y="-4" class="inputPortLabel cell_MUX">reset</text></g><g transform="translate(30,10)" s:x="30" s:y="10" s:pid="out0" id="port_MUX~digit_select"><text x="5" y="-4" style="fill:#000; stroke:none" class="cell_MUX">digit_select</text></g><g transform="translate(30,30)" s:x="30" s:y="10" s:pid="out0" id="port_MUX~output_number"><text x="5" y="-4" style="fill:#000; stroke:none" class="cell_MUX">output_number</text></g></g><g s:type="generic" transform="translate(213,70.5)" s:width="30" s:height="40" id="cell_number_mod"><text x="15" y="-4" class="nodelabel cell_number_mod" s:attribute="ref">split_number</text><rect width="30" height="80" s:generic="body" class="cell_number_mod"/><g transform="translate(0,10)" s:x="0" s:y="10" s:pid="in0" id="port_number_mod~number_i"><text x="-3" y="-4" class="inputPortLabel cell_number_mod">number_i</text></g><g transform="translate(30,10)" s:x="30" s:y="10" s:pid="out0" id="port_number_mod~number_o0"><text x="5" y="-4" style="fill:#000; stroke:none" class="cell_number_mod">number_o0</text></g><g transform="translate(30,30)" s:x="30" s:y="10" s:pid="out0" id="port_number_mod~number_o1"><text x="5" y="-4" style="fill:#000; stroke:none" class="cell_number_mod">number_o1</text></g><g transform="translate(30,50)" s:x="30" s:y="10" s:pid="out0" id="port_number_mod~number_o2"><text x="5" y="-4" style="fill:#000; stroke:none" class="cell_number_mod">number_o2</text></g><g transform="translate(30,70)" s:x="30" s:y="10" s:pid="out0" id="port_number_mod~number_o3"><text x="5" y="-4" style="fill:#000; stroke:none" class="cell_number_mod">number_o3</text></g></g><g s:type="generic" transform="translate(681,115.5)" s:width="30" s:height="40" id="cell_seg_dec_mod"><text x="15" y="-4" class="nodelabel cell_seg_dec_mod" s:attribute="ref">seg_dec</text><rect width="30" height="20" s:generic="body" class="cell_seg_dec_mod"/><g transform="translate(0,10)" s:x="0" s:y="10" s:pid="in0" id="port_seg_dec_mod~disp_num"><text x="-3" y="-4" class="inputPortLabel cell_seg_dec_mod">disp_num</text></g><g transform="translate(30,10)" s:x="30" s:y="10" s:pid="out0" id="port_seg_dec_mod~bcn"><text x="5" y="-4" style="fill:#000; stroke:none" class="cell_seg_dec_mod">bcn</text></g></g><g s:type="inputExt" transform="translate(334,22)" s:width="30" s:height="20" id="cell_clk"><text x="15" y="-4" class="nodelabel cell_clk" s:attribute="ref">clk</text><s:alias val="$_inputExt_"/><path d="M0,0 L0,20 L15,20 L30,10 L15,0 Z" class="cell_clk"/><g s:x="30" s:y="10" s:pid="Y"/></g><g s:type="inputExt" transform="translate(334,192)" s:width="30" s:height="20" id="cell_reset"><text x="15" y="-4" class="nodelabel cell_reset" s:attribute="ref">reset</text><s:alias val="$_inputExt_"/><path d="M0,0 L0,20 L15,20 L30,10 L15,0 Z" class="cell_reset"/><g s:x="30" s:y="10" s:pid="Y"/></g><g s:type="inputExt" transform="translate(12,71)" s:width="30" s:height="20" id="cell_to_display_nr"><text x="15" y="-4" class="nodelabel cell_to_display_nr" s:attribute="ref">to_display_nr</text><s:alias val="$_inputExt_"/><path d="M0,0 L0,20 L15,20 L30,10 L15,0 Z" class="cell_to_display_nr"/><g s:x="30" s:y="10" s:pid="Y"/></g><g s:type="outputExt" transform="translate(821,51)" s:width="30" s:height="20" id="cell_digit_select"><text x="15" y="-4" class="nodelabel cell_digit_select" s:attribute="ref">digit_select</text><s:alias val="$_outputExt_"/><path d="M30,0 L30,20 L15,20 L0,10 L15,0 Z" class="cell_digit_select"/><g s:x="0" s:y="10" s:pid="A"/></g><g s:type="outputExt" transform="translate(821,116)" s:width="30" s:height="20" id="cell_led_select"><text x="15" y="-4" class="nodelabel cell_led_select" s:attribute="ref">led_select</text><s:alias val="$_outputExt_"/><path d="M30,0 L30,20 L15,20 L0,10 L15,0 Z" class="cell_led_select"/><g s:x="0" s:y="10" s:pid="A"/></g><line x1="364" x2="374" y1="32" y2="32" class="net_2 width_1" style="stroke-width: 1"/><line x1="374" x2="374" y1="32" y2="61" class="net_2 width_1" style="stroke-width: 1"/><line x1="374" x2="448" y1="61" y2="61" class="net_2 width_1" style="stroke-width: 1"/><line x1="244" x2="448" y1="81" y2="81" class="net_29,30,31,32 width_4" style="stroke-width: 2"/><line x1="244" x2="448" y1="101" y2="101" class="net_33,34,35,36 width_4" style="stroke-width: 2"/><line x1="244" x2="448" y1="121" y2="121" class="net_37,38,39,40 width_4" style="stroke-width: 2"/><line x1="244" x2="448" y1="141" y2="141" class="net_41,42,43,44 width_4" style="stroke-width: 2"/><line x1="364" x2="374" y1="202" y2="202" class="net_3 width_1" style="stroke-width: 1"/><line x1="374" x2="374" y1="202" y2="161" class="net_3 width_1" style="stroke-width: 1"/><line x1="374" x2="448" y1="161" y2="161" class="net_3 width_1" style="stroke-width: 1"/><line x1="42" x2="213" y1="81" y2="81" class="net_4,5,6,7,8,9,10,11,12,13,14,15,16,17 width_14" style="stroke-width: 2"/><line x1="479" x2="568" y1="81" y2="81" class="net_45,46,47,48 width_4" style="stroke-width: 2"/><line x1="568" x2="568" y1="81" y2="126" class="net_45,46,47,48 width_4" style="stroke-width: 2"/><line x1="568" x2="681" y1="126" y2="126" class="net_45,46,47,48 width_4" style="stroke-width: 2"/><line x1="479" x2="821" y1="61" y2="61" class="net_18,19,20,21 width_4" style="stroke-width: 2"/><line x1="712" x2="821" y1="126" y2="126" class="net_22,23,24,25,26,27,28 width_7" style="stroke-width: 2"/><rect x="348" y="76" width="16" height="9" class="net_29,30,31,32 width_4 busLabel_4" style="fill: white; stroke: none"/><text x="347" y="84" class="net_29,30,31,32 width_4 busLabel_4">/4/</text><rect x="348" y="96" width="16" height="9" class="net_33,34,35,36 width_4 busLabel_4" style="fill: white; stroke: none"/><text x="347" y="104" class="net_33,34,35,36 width_4 busLabel_4">/4/</text><rect x="348" y="116" width="16" height="9" class="net_37,38,39,40 width_4 busLabel_4" style="fill: white; stroke: none"/><text x="347" y="124" class="net_37,38,39,40 width_4 busLabel_4">/4/</text><rect x="348" y="136" width="16" height="9" class="net_41,42,43,44 width_4 busLabel_4" style="fill: white; stroke: none"/><text x="347" y="144" class="net_41,42,43,44 width_4 busLabel_4">/4/</text><rect x="126" y="76" width="22" height="9" class="net_4,5,6,7,8,9,10,11,12,13,14,15,16,17 width_14 busLabel_14" style="fill: white; stroke: none"/><text x="125" y="84" class="net_4,5,6,7,8,9,10,11,12,13,14,15,16,17 width_14 busLabel_14">/14/</text><rect x="594" y="121" width="16" height="9" class="net_45,46,47,48 width_4 busLabel_4" style="fill: white; stroke: none"/><text x="593" y="129" class="net_45,46,47,48 width_4 busLabel_4">/4/</text><rect x="688.5" y="56" width="16" height="9" class="net_18,19,20,21 width_4 busLabel_4" style="fill: white; stroke: none"/><text x="687.5" y="64" class="net_18,19,20,21 width_4 busLabel_4">/4/</text><rect x="783" y="121" width="16" height="9" class="net_22,23,24,25,26,27,28 width_7 busLabel_7" style="fill: white; stroke: none"/><text x="782" y="129" class="net_22,23,24,25,26,27,28 width_7 busLabel_7">/7/</text></svg>