<svg xmlns="http://www.w3.org/2000/svg" xmlns:xlink="http://www.w3.org/1999/xlink" xmlns:s="https://github.com/nturley/netlistsvg" width="329" height="288.5"><style>svg {
  stroke:#000;
  fill:none;
}
text {
  fill:#000;
  stroke:none;
  font-size:10px;
  font-weight: bold;
  font-family: "Courier New", monospace;
}
line {
    stroke-linecap: round;
}
.nodelabel {
  text-anchor: middle;
}
.inputPortLabel {
  text-anchor: end;
}
.splitjoinBody {
  fill:#000;
}</style><g s:type="and" transform="translate(206,250.5)" s:width="30" s:height="25" id="cell_$and$input_sync.sv:16$31"><s:alias val="$and"/><s:alias val="$logic_and"/><s:alias val="$_AND_"/><s:alias val="$reduce_and"/><path d="M0,0 L0,25 L15,25 A15 12.5 0 0 0 15,0 Z" class="cell_$and$input_sync.sv:16$31"/><g s:x="0" s:y="5" s:pid="A"/><g s:x="0" s:y="20" s:pid="B"/><g s:x="30" s:y="12.5" s:pid="Y"/></g><g s:type="dff-bus" transform="translate(272,69.5)" s:width="34" s:height="44" id="cell_$auto$ff.cc:266:slice$102"><s:alias val="$dff-bus"/><s:alias val="$_DFF_-bus"/><s:alias val="$_DFF_P_-bus"/><s:alias val="adff-bus"/><s:alias val="$adff-bus"/><s:alias val="$_DFF_-bus"/><s:alias val="$_DFF_P_-bus"/><s:alias val="sdff-bus"/><s:alias val="$sdff-bus"/><s:alias val="$_DFF_-bus"/><s:alias val="$_DFF_P_-bus"/><rect width="30" height="40" x="0" y="0" class="cell_$auto$ff.cc:266:slice$102"/><path d="M0,35 L5,30 L0,25" class="cell_$auto$ff.cc:266:slice$102"/><path d="M30,2 L32,2 L32,42 L2,42 L2,40" class="cell_$auto$ff.cc:266:slice$102"/><path d="M32,4 L34,4 L34,44 L4,44 L4,42" class="cell_$auto$ff.cc:266:slice$102"/><g s:x="35" s:y="10" s:pid="Q"/><g s:x="-1" s:y="30" s:pid="CLK"/><g s:x="-1" s:y="30" s:pid="C"/><g s:x="-1" s:y="10" s:pid="D"/><g s:x="17" s:y="44" s:pid="ARST"/><g s:x="17" s:y="44" s:pid="SRST"/></g><g s:type="not" transform="translate(141,245.5)" s:width="30" s:height="20" id="cell_$not$input_sync.sv:16$30"><s:alias val="$_NOT_"/><s:alias val="$not"/><s:alias val="$logic_not"/><path d="M0,0 L0,20 L20,10 Z" class="cell_$not$input_sync.sv:16$30"/><circle cx="24" cy="10" r="3" class="cell_$not$input_sync.sv:16$30"/><g s:x="-1" s:y="10" s:pid="A"/><g s:x="27" s:y="10" s:pid="Y"/></g><g s:type="inputExt" transform="translate(206,130.5)" s:width="30" s:height="20" id="cell_clk"><text x="15" y="-4" class="nodelabel cell_clk" s:attribute="ref">clk</text><s:alias val="$_inputExt_"/><path d="M0,0 L0,20 L15,20 L30,10 L15,0 Z" class="cell_clk"/><g s:x="30" s:y="10" s:pid="Y"/></g><g s:type="inputExt" transform="translate(206,195.5)" s:width="30" s:height="20" id="cell_rst"><text x="15" y="-4" class="nodelabel cell_rst" s:attribute="ref">rst</text><s:alias val="$_inputExt_"/><path d="M0,0 L0,20 L15,20 L30,10 L15,0 Z" class="cell_rst"/><g s:x="30" s:y="10" s:pid="Y"/></g><g s:type="inputExt" transform="translate(69,59.5)" s:width="30" s:height="20" id="cell_unsync"><text x="15" y="-4" class="nodelabel cell_unsync" s:attribute="ref">unsync</text><s:alias val="$_inputExt_"/><path d="M0,0 L0,20 L15,20 L30,10 L15,0 Z" class="cell_unsync"/><g s:x="30" s:y="10" s:pid="Y"/></g><g s:type="outputExt" transform="translate(271,253)" s:width="30" s:height="20" id="cell_synced"><text x="15" y="-4" class="nodelabel cell_synced" s:attribute="ref">synced</text><s:alias val="$_outputExt_"/><path d="M30,0 L30,20 L15,20 L0,10 L15,0 Z" class="cell_synced"/><g s:x="0" s:y="10" s:pid="A"/></g><g s:type="join" transform="translate(151.33333333333334,59)" s:width="4" s:height="40" id="cell_$join$,4,8,7,"><rect width="5" height="40" class="splitjoinBody" s:generic="body"/><s:alias val="$_join_"/><g s:x="5" s:y="20" s:pid="out"/><g transform="translate(0,10)" s:x="0" s:y="10" s:pid="in0"><text x="-3" y="-4" class="inputPortLabel">0</text></g><g transform="translate(0,30)" s:x="0" s:y="10" s:pid="in0"><text x="-3" y="-4" class="inputPortLabel">1:2</text></g></g><g s:type="split" transform="translate(22,88)" s:width="5" s:height="40" id="cell_$split$,8,7,9,"><rect width="5" height="60" class="splitjoinBody" s:generic="body"/><s:alias val="$_split_"/><g s:x="0" s:y="20" s:pid="in"/><g transform="translate(4,10)" s:x="4" s:y="10" s:pid="out0"><text x="5" y="-4">1</text></g><g transform="translate(4,30)" s:x="4" s:y="10" s:pid="out0"><text x="5" y="-4">0:1</text></g><g transform="translate(4,50)" s:x="4" s:y="10" s:pid="out0"><text x="5" y="-4">2</text></g></g><line x1="168" x2="206" y1="255.5" y2="255.5" class="net_6 width_1" style="stroke-width: 1"/><line x1="27" x2="54" y1="98.5" y2="98.5" class="net_7 width_1" style="stroke-width: 1"/><line x1="54" x2="54" y1="98.5" y2="275.5" class="net_7 width_1" style="stroke-width: 1"/><line x1="54" x2="181" y1="275.5" y2="275.5" class="net_7 width_1" style="stroke-width: 1"/><line x1="181" x2="181" y1="275.5" y2="270.5" class="net_7 width_1" style="stroke-width: 1"/><line x1="181" x2="206" y1="270.5" y2="270.5" class="net_7 width_1" style="stroke-width: 1"/><line x1="236" x2="246" y1="140.5" y2="140.5" class="net_2 width_1" style="stroke-width: 1"/><line x1="246" x2="246" y1="140.5" y2="99.5" class="net_2 width_1" style="stroke-width: 1"/><line x1="246" x2="271" y1="99.5" y2="99.5" class="net_2 width_1" style="stroke-width: 1"/><line x1="157.33333333333334" x2="271" y1="79.5" y2="79.5" class="net_4,8,7 width_3" style="stroke-width: 2"/><line x1="236" x2="289" y1="205.5" y2="205.5" class="net_3 width_1" style="stroke-width: 1"/><line x1="289" x2="289" y1="205.5" y2="113.5" class="net_3 width_1" style="stroke-width: 1"/><line x1="27" x2="44" y1="138.5" y2="138.5" class="net_9 width_1" style="stroke-width: 1"/><line x1="44" x2="44" y1="138.5" y2="255.5" class="net_9 width_1" style="stroke-width: 1"/><line x1="44" x2="140" y1="255.5" y2="255.5" class="net_9 width_1" style="stroke-width: 1"/><line x1="236" x2="271" y1="263" y2="263" class="net_5 width_1" style="stroke-width: 1"/><line x1="99" x2="151.33333333333334" y1="69.5" y2="69.5" class="net_4 width_1" style="stroke-width: 1"/><line x1="27" x2="115" y1="118.5" y2="118.5" class="net_8,7 width_2" style="stroke-width: 2"/><line x1="115" x2="115" y1="118.5" y2="89.5" class="net_8,7 width_2" style="stroke-width: 2"/><line x1="115" x2="151.33333333333334" y1="89.5" y2="89.5" class="net_8,7 width_2" style="stroke-width: 2"/><line x1="307" x2="317" y1="79.5" y2="79.5" class="net_8,7,9 width_3" style="stroke-width: 2"/><line x1="317" x2="317" y1="79.5" y2="16" class="net_8,7,9 width_3" style="stroke-width: 2"/><line x1="317" x2="12" y1="16" y2="16" class="net_8,7,9 width_3" style="stroke-width: 2"/><line x1="12" x2="12" y1="16" y2="108.5" class="net_8,7,9 width_3" style="stroke-width: 2"/><line x1="12" x2="22" y1="108.5" y2="108.5" class="net_8,7,9 width_3" style="stroke-width: 2"/><rect x="220" y="74.5" width="16" height="9" class="net_4,8,7 width_3 busLabel_3" style="fill: white; stroke: none"/><text x="219" y="82.5" class="net_4,8,7 width_3 busLabel_3">/3/</text><rect x="86" y="113.5" width="16" height="9" class="net_8,7 width_2 busLabel_2" style="fill: white; stroke: none"/><text x="85" y="121.5" class="net_8,7 width_2 busLabel_2">/2/</text><rect x="154.5" y="11" width="16" height="9" class="net_8,7,9 width_3 busLabel_3" style="fill: white; stroke: none"/><text x="153.5" y="19" class="net_8,7,9 width_3 busLabel_3">/3/</text></svg>