<svg xmlns="http://www.w3.org/2000/svg" xmlns:xlink="http://www.w3.org/1999/xlink" xmlns:s="https://github.com/nturley/netlistsvg" width="529" height="217"><style>svg {
  stroke:#000;
  fill:none;
}
text {
  fill:#000;
  stroke:none;
  font-size:10px;
  font-weight: bold;
  font-family: "Courier New", monospace;
}
line {
    stroke-linecap: round;
}
.nodelabel {
  text-anchor: middle;
}
.inputPortLabel {
  text-anchor: end;
}
.splitjoinBody {
  fill:#000;
}</style><g s:type="generic" transform="translate(209,22)" s:width="30" s:height="40" id="cell_$auto$proc_rom.cc:150:do_switch$99"><text x="15" y="-4" class="nodelabel cell_$auto$proc_rom.cc:150:do_switch$99" s:attribute="ref">$mem_v2-bus</text><rect width="30" height="180" s:generic="body" class="cell_$auto$proc_rom.cc:150:do_switch$99"/><g transform="translate(0,10)" s:x="0" s:y="10" s:pid="in0" id="port_$auto$proc_rom.cc:150:do_switch$99~RD_ADDR"><text x="-3" y="-4" class="inputPortLabel cell_$auto$proc_rom.cc:150:do_switch$99">RD_ADDR</text></g><g transform="translate(0,30)" s:x="0" s:y="10" s:pid="in0" id="port_$auto$proc_rom.cc:150:do_switch$99~RD_ARST"><text x="-3" y="-4" class="inputPortLabel cell_$auto$proc_rom.cc:150:do_switch$99">RD_ARST</text></g><g transform="translate(0,50)" s:x="0" s:y="10" s:pid="in0" id="port_$auto$proc_rom.cc:150:do_switch$99~RD_CLK"><text x="-3" y="-4" class="inputPortLabel cell_$auto$proc_rom.cc:150:do_switch$99">RD_CLK</text></g><g transform="translate(0,70)" s:x="0" s:y="10" s:pid="in0" id="port_$auto$proc_rom.cc:150:do_switch$99~RD_EN"><text x="-3" y="-4" class="inputPortLabel cell_$auto$proc_rom.cc:150:do_switch$99">RD_EN</text></g><g transform="translate(0,90)" s:x="0" s:y="10" s:pid="in0" id="port_$auto$proc_rom.cc:150:do_switch$99~RD_SRST"><text x="-3" y="-4" class="inputPortLabel cell_$auto$proc_rom.cc:150:do_switch$99">RD_SRST</text></g><g transform="translate(0,110)" s:x="0" s:y="10" s:pid="in0" id="port_$auto$proc_rom.cc:150:do_switch$99~WR_ADDR"><text x="-3" y="-4" class="inputPortLabel cell_$auto$proc_rom.cc:150:do_switch$99">WR_ADDR</text></g><g transform="translate(0,130)" s:x="0" s:y="10" s:pid="in0" id="port_$auto$proc_rom.cc:150:do_switch$99~WR_CLK"><text x="-3" y="-4" class="inputPortLabel cell_$auto$proc_rom.cc:150:do_switch$99">WR_CLK</text></g><g transform="translate(0,150)" s:x="0" s:y="10" s:pid="in0" id="port_$auto$proc_rom.cc:150:do_switch$99~WR_DATA"><text x="-3" y="-4" class="inputPortLabel cell_$auto$proc_rom.cc:150:do_switch$99">WR_DATA</text></g><g transform="translate(0,170)" s:x="0" s:y="10" s:pid="in0" id="port_$auto$proc_rom.cc:150:do_switch$99~WR_EN"><text x="-3" y="-4" class="inputPortLabel cell_$auto$proc_rom.cc:150:do_switch$99">WR_EN</text></g><g transform="translate(30,10)" s:x="30" s:y="10" s:pid="out0" id="port_$auto$proc_rom.cc:150:do_switch$99~RD_DATA"><text x="5" y="-4" style="fill:#000; stroke:none" class="cell_$auto$proc_rom.cc:150:do_switch$99">RD_DATA</text></g></g><g s:type="inputExt" transform="translate(12,22.5)" s:width="30" s:height="20" id="cell_disp_num"><text x="15" y="-4" class="nodelabel cell_disp_num" s:attribute="ref">disp_num</text><s:alias val="$_inputExt_"/><path d="M0,0 L0,20 L15,20 L30,10 L15,0 Z" class="cell_disp_num"/><g s:x="30" s:y="10" s:pid="Y"/></g><g s:type="outputExt" transform="translate(487,22.5)" s:width="30" s:height="20" id="cell_bcn"><text x="15" y="-4" class="nodelabel cell_bcn" s:attribute="ref">bcn</text><s:alias val="$_outputExt_"/><path d="M30,0 L30,20 L15,20 L0,10 L15,0 Z" class="cell_bcn"/><g s:x="0" s:y="10" s:pid="A"/></g><g s:type="constant" transform="translate(95,83.5)" s:width="30" s:height="20" id="cell_0"><text x="15" y="-4" class="nodelabel cell_0" s:attribute="ref">0</text><s:alias val="$_constant_"/><rect width="30" height="20" class="cell_0"/><g s:x="31" s:y="10" s:pid="Y"/></g><g s:type="constant" transform="translate(95,148.5)" s:width="30" s:height="20" id="cell_1"><text x="15" y="-4" class="nodelabel cell_1" s:attribute="ref">1</text><s:alias val="$_constant_"/><rect width="30" height="20" class="cell_1"/><g s:x="31" s:y="10" s:pid="Y"/></g><line x1="42" x2="209" y1="32.5" y2="32.5" class="net_2,3,4,5 width_4" style="stroke-width: 2"/><line x1="126" x2="136" y1="93.5" y2="93.5" class="net_13 width_1" style="stroke-width: 1"/><line x1="136" x2="136" y1="93.5" y2="52.5" class="net_13 width_1" style="stroke-width: 1"/><circle cx="136" cy="93.5" r="2" style="fill:#000" class="net_13 width_1"/><line x1="136" x2="209" y1="52.5" y2="52.5" class="net_13 width_1" style="stroke-width: 1"/><line x1="126" x2="136" y1="93.5" y2="93.5" class="net_13 width_1" style="stroke-width: 1"/><line x1="136" x2="136" y1="93.5" y2="112.5" class="net_13 width_1" style="stroke-width: 1"/><line x1="136" x2="209" y1="112.5" y2="112.5" class="net_13 width_1" style="stroke-width: 1"/><line x1="126" x2="146" y1="158.5" y2="158.5" class="net_14 width_1" style="stroke-width: 1"/><line x1="146" x2="146" y1="158.5" y2="92.5" class="net_14 width_1" style="stroke-width: 1"/><line x1="146" x2="209" y1="92.5" y2="92.5" class="net_14 width_1" style="stroke-width: 1"/><line x1="156" x2="156" y1="203.5" y2="132.5" class="net_ width_1" style="stroke-width: 1"/><line x1="156" x2="209" y1="132.5" y2="132.5" class="net_ width_1" style="stroke-width: 1"/><line x1="156" x2="156" y1="203.5" y2="152.5" class="net_ width_1" style="stroke-width: 1"/><circle cx="156" cy="152.5" r="2" style="fill:#000" class="net_ width_1"/><line x1="156" x2="209" y1="152.5" y2="152.5" class="net_ width_1" style="stroke-width: 1"/><line x1="156" x2="156" y1="203.5" y2="172.5" class="net_ width_1" style="stroke-width: 1"/><circle cx="156" cy="172.5" r="2" style="fill:#000" class="net_ width_1"/><line x1="156" x2="209" y1="172.5" y2="172.5" class="net_ width_1" style="stroke-width: 1"/><line x1="156" x2="156" y1="203.5" y2="192.5" class="net_ width_1" style="stroke-width: 1"/><circle cx="156" cy="192.5" r="2" style="fill:#000" class="net_ width_1"/><line x1="156" x2="209" y1="192.5" y2="192.5" class="net_ width_1" style="stroke-width: 1"/><line x1="240" x2="487" y1="32.5" y2="32.5" class="net_6,7,8,9,10,11,12 width_7" style="stroke-width: 2"/><rect x="109.5" y="27.5" width="16" height="9" class="net_2,3,4,5 width_4 busLabel_4" style="fill: white; stroke: none"/><text x="108.5" y="35.5" class="net_2,3,4,5 width_4 busLabel_4">/4/</text><rect x="449" y="27.5" width="16" height="9" class="net_6,7,8,9,10,11,12 width_7 busLabel_7" style="fill: white; stroke: none"/><text x="448" y="35.5" class="net_6,7,8,9,10,11,12 width_7 busLabel_7">/7/</text></svg>